<?xml version="1.0" encoding="UTF-8"?>
<svg id="_レイヤー_1" data-name="レイヤー_1" xmlns="http://www.w3.org/2000/svg" version="1.1" viewBox="0 0 2000 2000">
  <!-- Generator: Adobe Illustrator 30.3.0, SVG Export Plug-In . SVG Version: 2.1.3 Build 182)  -->
  <defs>
    <style>
      .st0 {
        fill: none;
      }

      .st1 {
        stroke-width: 6px;
      }

      .st1, .st2 {
        fill: #f5f1eb;
        stroke: #f5f1eb;
        stroke-miterlimit: 10;
      }

      .st2 {
        stroke-width: 9px;
      }
    </style>
  </defs>
  <rect class="st0" x="970.4" y="406.2" width="56.8" height="40.7"/>
  <rect class="st0" x="970.4" y="451.4" width="56.8" height="44.5"/>
  <rect class="st0" x="928.8" y="667.4" width="23.5" height="66.7"/>
  <path class="st0" d="M1021.5,1031c2.3-1,3.4-2.9,3.4-5.6,0-7-2.2-12.8-6.6-17.5-4.4-4.6-10.1-6.9-17-6.9s-12.3,3-17.1,9.1c-4.8,6-8.1,14-9.8,23.8l35.7-1.1c5.4,0,9.2-.7,11.5-1.7Z"/>
  <path class="st0" d="M972,1609c0,13.3,5.1,20,15.4,20s9.8-1.2,14.6-3.7,8-5.6,9.7-9.2l1.1-37.7c-27.2,6.2-40.8,16.4-40.8,30.7Z"/>
  <path class="st2" d="M920.2,406.7c1.5-.3,3.4-.5,5.6-.5h34.5v60.7c0,1.6-.2,7.7-.5,18.3-.3,10.6-.5,19.2-.5,26s1.1,5,3.2,5c3.2,0,5.4-.7,6.4-2.1,1-1.4,1.5-3.8,1.5-7.2v-6.4h56.8v11c0,1.5.3,2.6.9,3.4.6.7,2,1.1,4.1,1.1,2.5-.6,4.1-1.6,4.8-2.8.8-1.2,1.1-3.3,1.1-6.2v-6c0-11.2-.1-29.7-.3-55.6-.2-25.8-.3-38.9-.4-39.3h46.7c1.2-.2,1.9-.7,1.9-1.5s-2.1-3.4-6.4-7.2c-4.2-3.8-6.7-5.7-7.5-5.7l-7.8,9.9h-26.9v-32.1c0-.2.8-1.1,2.3-2.5,1.6-1.4,2.3-2.6,2.3-3.5,0-1.5-2.2-2.8-6.5-4-4.4-1.2-7.7-1.8-10.1-1.8.5,1.7.9,3.6,1.2,5.6.3,2,.5,4.3.5,6.9v31.4h-56.8v-33.1c0-.2.9-1,2.8-2.2,1.9-1.2,2.8-2.3,2.8-3.2,0-1.2-2.5-2.6-7.4-3.9-4.9-1.4-8.4-2.1-10.4-2.1l2.1,14.2v30.3h-36.7c-.5,0-3.1-.3-7.9-.9-1-.1-1.9-.2-2.8-.2l3.6,6.7c1-.1,2.3-.3,3.8-.7ZM970.4,406.2h56.8v40.7h-56.8v-40.7ZM970.4,451.4h56.8v44.5h-56.8v-44.5Z"/>
  <path class="st2" d="M952.3,738.2v8c0,2.1.8,3.2,2.5,3.2s2.6-.2,3.9-.6c2.5-.7,3.7-2.2,3.7-4.3v-7.1l-.7-65.2c0-.5,1-1.2,3.1-2.1,2.1-.9,3.1-1.8,3.1-2.7s-1.9-2.8-5.8-5.8c-1.2-.9-3.1-2.2-5.6-4.1l-6,5.6h-21.6c-1.1-1.1-2.4-2.1-3.9-2.8-1.5-.7-3.7-1.7-6.8-2.8.2,1.9.5,3.9.7,6,.2,2.1.4,4.2.4,6.4v81.1l-.7,14c0,2.4.8,3.5,2.3,3.5,2.3,0,4.4-.4,6.3-1.3,1.9-.9,2.8-2.2,2.8-4.1l-1.1-4.5v-20.4h23.5ZM928.8,667.4h23.5v66.7h-23.5v-66.7Z"/>
  <path class="st2" d="M1024.6,709.3h47.8c2.4,0,3.5-.4,3.5-1.3s-1.7-3.1-5-6.2c-2.6-2.5-4.7-4.3-6.4-5.4l-6.7,8.4h-36.4v-31.4h45.4c2.1,0,3.2-.4,3.2-1.3,0-1.2-1.8-3.5-5.4-6.9-2.5-2-4.9-4-7.3-6.2l-8.2,10.1h-27.6v-23c0-.6.9-1.6,2.7-2.8,1.8-1.2,2.7-2.2,2.7-2.8,0-1.2-2.3-2.5-6.8-3.7-4.5-1.2-7.8-1.9-9.8-1.9.5,2.2.9,4.6,1.2,7.1.3,2.5.5,5.1.5,7.8v19.2h-27.3c-1.1,0-3-.2-5.6-.6s-4-.6-4.1-.6l2.6,6.7c1.9-.2,3.7-.5,5.6-.8,1.9-.3,3.5-.5,4.9-.5h23.9v31.4h-35.5c-.4,0-2-.2-4.8-.5-2.8-.3-4.5-.5-5-.5l2.6,6.7c1.9-.2,3.7-.5,5.6-.8,1.9-.3,3.5-.5,4.9-.5h26.7c-1.7,4-3.3,7.4-4.7,10.3-4.6,9-10.2,17.7-16.8,26.2-6.1,8-13.1,15.4-21.1,22.2-6.2,5.5-13.4,10.7-21.5,15.7-.4.3-.8.7-1.3,1.3-.1.1-.3.3-.4.6l.6.6c3.5,0,11.4-4.5,23.7-13.4,10.6-7.7,17.7-13.4,21.4-17.2,6.2-6.5,12.4-14.1,18.4-22.8,2-2.9,4.3-6.5,7.1-11v61.5l-1.1,11c0,1.7.2,2.8.7,3.2.5.4,2.1.6,4.9.6,2.4-.4,4-1,4.8-1.8.8-.8,1.2-2,1.2-3.5l-.9-6.9v-76.4c1.5,4.2,2.7,7.7,3.7,10.5,3.2,8.1,6.8,15.3,10.8,21.5,3.4,5.1,9.3,12.7,17.7,22.8,10.7,12.7,17.6,19.1,20.5,19.1s1.6-.3,2.4-.8c.9-.6,2.2-1.5,4.1-2.9,1.1-.6,4-1.8,8.8-3.5,1.4-.5,2.1-.9,2.1-1.3-.4-.4-.7-.6-.9-.7-.9-.6-1.8-1.1-2.8-1.3-13.3-4.7-25.9-13-37.6-24.9-11.8-11.9-20.3-24.6-25.7-38.2Z"/>
  <path class="st1" d="M1043.6,1041.7c3.1,0,4.6-1.3,4.6-3.9,0-11.5-4.5-22-13.5-31.5-9-9.5-20.2-14.2-33.4-14.2s-28.9,6.4-39.2,19.1c-10.3,12.7-15.5,28.3-15.5,46.6s5.3,33.1,15.8,45.5c10.5,12.3,23.5,18.5,38.9,18.5s13.7-1.6,20.1-4.9c6.4-3.3,12.4-8,17.8-14.2,5.5-6.2,8.2-10.3,8.2-12.3s-.4-2.6-1.1-3.6c-.7-1-1.5-1.5-2.2-1.5l-.6.3c-3.8,5.5-8.7,10.1-14.9,13.6-6.2,3.6-12.3,5.3-18.3,5.3-12.1,0-21.4-4-27.9-12.1-6.5-8.1-9.8-19.7-9.8-34.7s.3-10.7.8-15.7h70.3ZM984.2,1010.1c4.8-6,10.5-9.1,17.1-9.1s12.6,2.3,17,6.9c4.4,4.6,6.6,10.5,6.6,17.5s-1.1,4.6-3.4,5.6c-2.3,1-6.1,1.6-11.5,1.7l-35.7,1.1c1.7-9.8,5-17.8,9.8-23.8Z"/>
  <path class="st1" d="M1089.9,1351.7c-6.5-.8-10.7-2.4-12.6-4.7-1.9-2.3-2.8-7.2-2.8-14.8v-44c0-10.1-2.9-18.2-8.8-24.2s-14-9-24.5-9-22.5,5.6-34.1,16.8c-5.2-11.2-15.2-16.8-29.8-16.8s-19.9,5.1-31,15.4l.9-14.5c0-1.2-1.1-1.8-3.2-1.8s-1.8.5-2.5,1.4c-1.3,1.5-4.5,3.5-9.5,5.9-5.1,2.4-11.4,4.6-19,6.5-1.2,0-1.8.9-1.8,2.8s.6,3.1,1.8,3.1c5.3.6,8.7,1.9,10.3,3.8,1.6,1.9,2.4,5.9,2.4,12.1v42.6c0,7.5-.9,12.4-2.8,14.7-1.9,2.3-6.1,3.9-12.6,4.7-1.2.2-1.8,1.2-1.8,3.1s.6,3.2,1.8,3.2c3.2,0,6.9-.2,11.3-.7,4.9-.5,9.3-.7,13.1-.7s8.1.2,13.1.7c4.5.5,8.4.7,11.5.7s1.8-1.1,1.8-3.2-.6-3-1.9-3.1c-5.3-.6-8.8-2.1-10.5-4.5-1.7-2.4-2.5-7.4-2.5-15v-51.9c3.9-4.3,7.6-7.3,11-9,3.4-1.7,7.4-2.5,11.8-2.5,7.1,0,12.3,2,15.7,6,3.4,4,5.1,10.3,5.1,18.9v38.5c0,7.6-.8,12.6-2.5,15-1.7,2.4-5.1,3.9-10.5,4.5-1.2.2-1.8,1.2-1.8,3.1s.6,3.2,1.8,3.2c3.1,0,6.7-.2,10.7-.7,4.5-.5,8.7-.7,12.6-.7s7.8.2,12.2.7c4.1.5,7.7.7,10.7.7s1.8-1.1,1.8-3.2-.6-3-1.8-3.1c-5.2-.6-8.7-2.1-10.3-4.5-1.7-2.4-2.5-7.4-2.5-15v-53.9c6.1-6.3,13.7-9.5,23-9.5s12.2,2,15.5,5.9c3.3,4,4.9,10.3,4.9,19v38.5c0,7.6-.8,12.6-2.4,15-1.6,2.4-5,3.9-10.2,4.5-1.2.2-1.8,1.2-1.8,3.1s.6,3.2,1.8,3.2c3.1,0,6.9-.2,11.4-.7,4.9-.5,9.2-.7,13-.7s8.2.2,13.1.7c4.5.5,8.2.7,11.3.7s1.8-1.1,1.8-3.2-.6-3-1.8-3.1Z"/>
  <path class="st1" d="M1058.2,1621.1l-1,.3c-4.1,3.7-7.7,5.6-10.8,5.6-6.4,0-9.5-4.9-9.5-14.7v-1l2.1-63.4v-1.7c0-10.1-3.1-18.1-9.4-24.1-6.3-6-14.5-9-24.6-9s-23.4,4-36.5,11.9c-13.1,7.9-19.6,15.5-19.6,22.7s.9,5.4,2.8,7.2c1.9,1.8,4.3,2.7,7.3,2.7,5.1,0,9.1-1.7,12.1-5.1,3-3.4,4.6-8,4.7-14,0-4,2.1-7.4,5.9-10,3.8-2.7,8.5-4,14-4s9.9,2,13.3,6c3.3,4,5,9.3,5,16.1v.7l-.8,21.9c-45.5,11.9-68.2,27.4-68.2,46.6s2.7,14.2,8,19.4c5.3,5.2,12.2,7.8,20.6,7.8,16.2,0,29.3-5.1,39.3-15.4,1.4,4.4,4,7.9,7.9,10.5,3.9,2.6,8.4,3.9,13.6,3.9s12.8-2,18.4-5.9c5.7-3.9,8.5-7.2,8.5-10s-.3-2.2-1-3.2c-.7-1-1.4-1.5-2.1-1.5ZM1011.7,1616c-1.7,3.7-4.9,6.7-9.7,9.2s-9.7,3.7-14.6,3.7c-10.3,0-15.4-6.7-15.4-20s13.6-24.5,40.8-30.7l-1.1,37.7Z"/>
</svg>