<?xml version="1.0" encoding="UTF-8"?>
<svg id="_レイヤー_1" data-name="レイヤー_1" xmlns="http://www.w3.org/2000/svg" version="1.1" viewBox="0 0 2000 2000">
  <!-- Generator: Adobe Illustrator 30.3.0, SVG Export Plug-In . SVG Version: 2.1.3 Build 182)  -->
  <defs>
    <style>
      .st0 {
        fill: #f5f1eb;
        stroke: #f5f1eb;
        stroke-miterlimit: 10;
        stroke-width: .8px;
      }
    </style>
  </defs>
  <path class="st0" d="M45.3,947c-.7-.6-1.3-1.1-1.8-1.5l-2,2.5h-9.6c.5-.6,1-1.1,1.3-1.5.8-1.1,1.9-2.5,3.3-4.3l4-5.9c0-.1.3-.2.7-.4.7-.2,1.1-.5,1.1-.7,0-.4-.6-.9-1.7-1.6-.3-.2-1.1-.6-2.2-1.2,0,1.4-1.2,4.1-3.7,8.1-2.2,3.7-4,6.1-5.3,7.4h-4.4v-8h8.2c.5,0,.8-.1.8-.3s-.4-.8-1.3-1.6c0,0-.6-.6-1.6-1.5l-1.9,2.2h-4.2v-4.4c0-.1.3-.4.9-.8.6-.4.9-.7.9-1,0-.5-1-1-2.9-1.5-.8-.2-1.4-.3-1.8-.3.1.8.2,1.6.3,2.4,0,.9.1,1.7.1,2.7v2.8h-10.9c0,0-.5,0-1.2-.1s-1.1-.1-1.2-.1l.7,1.7c0,0,.3,0,.7,0,.9-.2,1.5-.2,1.9-.2h10.1v8H6.3c-.1,0-.5,0-1.2-.1-.7,0-1.1-.1-1.2-.1l.7,1.7c.3,0,.7-.1,1.2-.2.5,0,.9-.1,1.4-.1h21.1c-1.2,1.4-2.5,2.7-3.7,4.1-1,1.1-1.6,1.6-1.7,1.6-.5-.4-.9-.7-1.1-.8-.8-.6-1.3-.8-1.5-.8v.2c-.1,0,0,.4,0,.9.1.5.2,1,.2,1.3v1.5c-.9.9-1.7,1.7-2.4,2.3-1.9,1.7-4,3.4-6.3,5.1-1.9,1.5-3.4,2.5-4.3,3.1-.7.4-1.3.8-2,1.2-.1,0-.2.2-.4.4l.2.2c.2,0,1.4-.6,3.6-1.8,2.2-1.2,3.4-1.9,3.8-2.1,2.1-1.4,4-2.7,5.7-4.1.6-.5,1.3-1,2-1.7v8.3c0,1.1,0,2,.2,2.6s.6,1.1,1.4,1.6,2,.8,3.7,1,3.6.3,5.8.3c4.3,0,7.9-.3,10.8-1s4.4-1.6,4.4-2.7-.1-.6-.4-1c-.3-.4-.7-.8-1.1-1.2,0-.2-.2-1.2-.5-3.3,0-1-.2-2.2-.4-3.5,0-.2,0-.3-.3-.5,0,0,0,0,0,0-.1.2-.2.3-.2.5,0,.8-.1,2.1-.4,3.8-.3,2.3-.7,3.7-1.1,4.1-.7.8-2.1,1.4-4,1.8-2,.4-4.2.6-6.7.6s-3.6,0-4.9-.2-2.3-.3-2.7-.6c-.4-.2-.7-.5-.8-.8s-.2-.9-.2-1.7v-6.2c.6,0,3.1-.8,7.6-2.3,4.5-1.5,6.8-2.4,6.8-2.5,0,0,.5,0,1.4-.1.8,0,1.3-.2,1.3-.5s-.4-.5-1.1-1.1c-1.3-1.1-2.1-1.6-2.4-1.6-1.6,1.6-3.7,3.1-6.4,4.4-1.9,1-4.3,1.9-7.2,2.9v-3.1c.7-.7,1.7-1.7,3.2-3.2,2.2-2.2,3.9-4,5.1-5.4h14.8c.6,0,.9-.1.9-.4s-.5-.8-1.4-1.7Z"/>
  <path class="st0" d="M113.8,949.3l-2.6-1.4-1.9,2.3h-18.1l2.1-5.4c0,0,.4-.3,1-.5.7-.2,1-.5,1-.7s-.7-.9-2-1.5c-1.4-.7-2.2-1-2.6-1,0,.2,0,.3,0,.4,0,.2,0,.6,0,.9,0,.9-.3,2.2-.8,4-.5,1.7-1,3.1-1.4,4h-12.2c-.4,0-.8,0-1.3,0s-.9,0-1.4-.1c0,.1,0,.2,0,.2,0,.1.3.3.5.6.5.5,1,.8,1.3.8s.5,0,.9-.2c.4,0,1.2-.1,2.4-.1,1.2,0,2.4,0,3.7,0h5.4c-.5,1.1-.9,2-1.4,2.7-1.2,2.3-2.7,4.4-4.3,6.3-1.6,1.9-3.3,3.6-5,5.2-1.5,1.2-3,2.4-4.5,3.6,0,0-.1.2-.2.4h.3c.8.1,2.7-1.1,5.8-3.6,2.3-1.9,4-3.4,5.2-4.5.7-.8,1.4-1.6,2.1-2.5,0,.9.1,2,.1,3.5,0,1.5-.1,2.7-.2,3.9,0,1.1,0,2.4,0,3.9l-.2,3.2h.7c.5,0,1,0,1.5-.2.5-.2.7-.6.7-1v-1.8h17l-.2,2.5h.8c.6,0,1.1,0,1.6-.3.4-.2.7-.6.7-1.2,0-.8,0-2.1-.1-3.8,0-1.7-.1-3-.1-3.9v-2.4c0,0,.2-.3.7-.7.5-.4.7-.7.7-1s-.3-.6-.9-1l-2.3-1.2-1.2,1.6h-16.5c-.3-.3-.8-.7-1.7-1.1,0,0-.1,0-.2,0,.6-.9,1.2-1.8,1.8-2.9.5-.9,1.1-2,1.7-3.3h22.6c.5,0,.9,0,1.3-.2.4-.1.5-.3.5-.6s-.5-.7-1.4-1.2ZM88.9,959.8h17v9.2h-17v-9.2Z"/>
  <path class="st0" d="M73.7,937.7c.2.2.5.4.7.5.2.1.4.2.7.2.3,0,.6-.1.9-.2.3,0,.9,0,1.7,0h8.5l-.3,5.4c0,0,.2,0,.2,0,.2,0,.4,0,.6,0,.6,0,1.1-.1,1.5-.4.5-.3.7-.7.7-1.2s0-.8-.1-1.7c0-1-.1-1.7-.1-2.2h11.1v1.6l-.2,3.4c0,0,.2,0,.2,0,.2,0,.4,0,.6,0,.5,0,1-.1,1.5-.3.5-.2.7-.6.7-1.1s0-.7-.2-1.6c-.1-.9-.2-1.6-.2-2.1h10.1c.4,0,.7,0,1.1,0,.8-.2,1.2-.4,1.2-.7s-.4-.7-1.2-1.2l-2.6-1.4-1.8,2.2h-6.8v-2.6c0,0,.2-.3.5-.6.7-.5,1-.8,1-1,0-.3-.6-.6-1.7-.8-1.2-.2-2-.4-2.6-.4.1.2.2.3.2.5.2.4.2.8.2,1.3v3.6h-11.1v-2.8c0,0,.2-.2.5-.5.7-.4,1-.8,1-1,0-.4-.6-.7-1.8-.9-1.2-.2-2.1-.4-2.8-.4.1.2.2.4.2.5.2.7.4,1.4.5,1.9v3.1h-10.3c-.4,0-.8,0-1.3,0-.5,0-.9,0-1.4-.1,0,.1,0,.2,0,.2,0,.1.3.3.5.6Z"/>
  <path class="st0" d="M183.7,955.6c-1.2-1-2-1.5-2.4-1.5l-1.3,1.5h-13.5l.8-2.7c.4-.2.7-.4,1-.5.3-.2.5-.3.5-.5,0-.3-.5-.7-1.4-1.1-.9-.5-1.5-.7-1.8-.7h11.8v1.4c0,.5.2.7.7.7.7,0,1.2-.1,1.6-.4.4-.3.5-.7.5-1.4v-1.1c-.1-1.3-.1-3.2-.1-5.7v-7.1c0,0,.3-.2.8-.5.5-.2.8-.4.8-.7s-.5-.8-1.4-1.4c-.6-.4-1.2-.8-1.8-1.1l-1.6,1.5h-21.7c-.3-.3-.8-.6-1.5-.9-.7-.3-1.2-.5-1.6-.5,0,.4.1.7.1.8.2,1.3.3,2.3.3,2.9v4.7c0,1.1,0,2.7-.1,4.9,0,2.2-.1,3.8-.1,4.9s.3.7.9.7,1.1-.1,1.5-.4c.4-.3.6-.7.6-1.3h9.2c0,.5,0,1.1,0,1.6,0,.5-.1,1.1-.2,1.6l-.7,2.5h-12.9c-.6,0-1.2,0-1.7,0-.5,0-.9,0-1.2-.1l.9,1.5c.5,0,1-.1,1.4-.2.4,0,.9,0,1.5,0h11.5c-.6,1.8-1.4,3.5-2.4,5.1-1.2,1.9-2.5,3.4-3.9,4.5-1.4,1.1-3.1,2.1-5,3-2.6,1.3-4.5,2-5.6,2.1-.2,0-.3,0-.5.2,0,0,0,0-.1,0,0,0,.2.1.2.1.2,0,.5,0,.8,0,.8-.2,1.7-.4,2.6-.6,1.8-.4,3.5-1,5.1-1.7,2.1-.9,3.9-1.9,5.3-3.1,2-1.7,3.7-3.9,5.1-6.5.4-.9.9-2,1.4-3.4h14.2c0,2.7-.3,5.1-.9,7.1-.9,2.9-2.3,4.5-4.4,4.7-.8,0-1.8-.2-3-.5-1.1-.3-2.4-.7-3.6-1.2l-.2.2c0,.1.4.5,1.3,1.2,2,1.6,3.1,2.6,3.2,2.8s.3.6.4,1c.1.5.3.7.6.7,1.1,0,2.4-.6,4.1-1.7,1.2-.9,2.2-1.9,2.9-3.2,1-1.8,1.7-4,2.1-6.5.1-.8.2-1.6.3-2.3s.4-1.2.9-1.5c.5-.2.8-.5.8-.7s-.3-.6-1-1.1ZM167.4,935.3h10v6.1h-10v-6.1ZM167.4,942.6h10v6.2h-10v-6.2ZM164.6,948.8h-9.4v-6.2h9.4v6.2ZM164.6,941.5h-9.4v-6.1h9.4v6.1Z"/>
  <path class="st0" d="M252.1,941l-2.2,2.7h-19.8c0-.3.4-1.8,1.3-4.4.9-2.7,1.4-4.2,1.4-4.7,0,0,.3-.3.8-.5.5-.2.8-.5.8-.7s-.4-.5-1.2-.9c-1.5-.7-2.5-1.1-3-1.1,0,1.2-.3,3.3-1,6.3-.7,2.9-1.3,5-1.8,6h-12.8c0,0-.5,0-1.2-.1-.7,0-1.1-.1-1.3-.1l.7,1.7c.3,0,.8-.1,1.3-.2.5,0,1-.1,1.3-.1h11.6c-.6,1.8-1.2,3.5-1.8,5.3-.7,2-1.5,4-2.4,6.1-.6,1.2-1.2,2.4-1.8,3.6-.5,1-.7,1.5-.7,1.7,0,.3.5.6,1.5.7.7,0,1.3-.2,1.6-.5.2-.2.3-.5.6-1.1l.7-2c.6,0,2.3.5,5,1.5,2.7,1,4.3,1.7,4.6,2-1.4,1.5-2.3,2.4-2.7,2.8-1.8,1.6-3.8,2.9-5.9,3.9s-4.1,1.9-5.9,2.6-3,1.1-3.6,1.2c-.1,0-.3,0-.5.2,0,0,.2.1.2.1.2,0,.4,0,.6,0,.8,0,2.3-.2,4.4-.7,2.8-.7,5.3-1.5,7.4-2.6s4.2-2.5,6.1-4.2c.7-.6,1.4-1.3,2.3-2.3.8.4,1.4.8,2,1.1,1.6,1,3.2,2,4.7,3.2,1.1.8,2.2,1.6,3.2,2.6,1.6,1.4,2.6,2.1,2.9,2.1s.6-.2.9-.6c.2-.4.3-.7.3-1.1,0-.7-.3-1.4-1-2.3-.6-.8-1.6-1.6-2.8-2.4-1.4-.9-3.3-1.9-5.8-3-.8-.4-2-.9-3.4-1.5.7-1.1,1.1-1.9,1.5-2.5,1-1.8,1.8-3.4,2.2-4.7.7-2,1.3-4.2,1.8-6.6.2-.8.3-1.8.5-2.9h10.6c.5,0,.8,0,.8-.2,0-.2-.5-.9-1.4-1.8-.5-.5-1.1-1-1.8-1.7ZM240.7,947.7c-.4,2.2-.8,4-1.3,5.4-.7,1.9-1.4,3.6-2.3,5.2-.5.8-.9,1.6-1.4,2.3-.7-.2-1.3-.4-1.8-.6-1.6-.5-2.9-.9-4.1-1.2-1.2-.3-2.1-.5-2.8-.6-.6-.1-1.2-.2-1.8-.3.4-.9.7-1.6.8-2,.6-1.5,1.1-2.8,1.4-3.8.6-1.8,1.2-3.6,1.8-5.3.2-.6.4-1.2.6-2h11.3c-.2,1.2-.3,2.2-.5,2.9Z"/>
  <path class="st0" d="M323.3,932.9c-.9-.7-1.5-1-1.7-1l-1.5,1.4h-10.4c-.2-.2-.6-.5-1.2-.7s-1-.4-1.4-.5l.3,3.2v2.8c0,1.8,0,3.6,0,5.4s0,3.4-.1,4.9c0,.6.2.9.6.9s.6,0,1-.2c.7-.2,1-.6,1-1.1s0-.4-.2-.7h10.9v20.3c0,.8-.1,1.3-.4,1.6-.3.3-.8.4-1.7.4s-1.1,0-1.9-.1c-.8,0-1.6-.2-2.1-.3-.2,0-.4,0-.6,0,0,.2.6.6,1.8,1.2,1.2.7,1.9,1.1,2.1,1.2s.4.5.6,1c.2.3.4.5.7.5,1.3-.2,2.3-.7,3-1.5.7-.8,1-1.6,1-2.6v-33.4c0,0,.3-.3,1-.7.3-.2.5-.4.5-.6,0-.3-.5-.8-1.4-1.4ZM320.6,946.3h-10.9v-5.6h10.9v5.6ZM320.6,939.7h-10.9v-5.3h10.9v5.3Z"/>
  <path class="st0" d="M287.3,961.7c0-2.9,0-5.6,0-8.1,0-2.5,0-4.6,0-6.3h9.7v1.5c0,.3.1.5.4.5s.8-.1,1.3-.3c.5-.2.7-.5.7-.9v-12.9c-.1,0,0-.2.5-.4s.7-.4.7-.6c0-.3-.4-.8-1.2-1.4-.8-.6-1.3-.9-1.6-.9l-1.3,1.4h-9l-1.5-.8c-.7-.4-1.2-.6-1.4-.6,0,.5.1,1,.2,1.5,0,.6.1,1.1.1,1.6v11.9c0,3.5,0,7.2,0,11.2,0,4,0,7.5,0,10.7l-.2,2.8c0,.7.2,1,.7,1s1.2-.1,1.7-.3c.5-.2.7-.6.7-1.1v-1.6c-.2-2.4-.2-5.1-.2-7.9ZM287.3,934.4h9.7v5.3h-9.7v-5.3ZM287.3,940.7h9.7v5.5h-9.7v-5.5Z"/>
  <path class="st0" d="M310.7,953.3c-.3-.2-.8-.6-1.4-1l-1.5,1.4h-10.3c-.3-.3-.6-.5-1-.7-.4-.2-.9-.4-1.7-.7,0,.5.1,1,.2,1.5,0,.5,0,1,0,1.5v8.2l-.2,3.4c0,.5,0,.8.2.9,0,0,.1,0,.3,0,.5,0,1.1-.1,1.6-.3.5-.2.8-.6.8-1l-.3-2.1h10.7v2c0,.6.2.8.7.8s.9-.1,1.3-.3c.5-.2.7-.5.7-.9,0-.2,0-.5,0-.8s0-.6,0-1v-8.3c-.1-.1,0-.3.4-.5.7-.3,1-.6,1-.8s-.5-.7-1.4-1.4ZM308.3,963.4h-10.7v-8.7h10.7v8.7Z"/>
  <path class="st0" d="M391.5,950.1c-2-1.4-4.4-2-7.3-2s-6.4.7-10.3,2.2c-3.3,1.3-5.8,2.6-7.5,3.9l-.2-.2c0-1.1.4-2.2,1.3-3.2.9-1,1.8-2.1,2.9-3.2,0-.5-.2-1-.7-1.6-.5-.5-.9-.8-1.4-.8s-.4,0-.8.2-.7.2-.8.2c-.2,0-.4-.7-.4-2s0-1.5.2-2.3c.1-.8.4-2,.9-3.8.1-.5.2-1,.2-1.6,0-.9-.6-1.6-1.9-2.1-1-.4-2.1-.6-3.3-.6s-.7,0-1,0c-.3,0-.4.1-.4.3s.5.5,1.6,1.1c1.1.5,1.6,1,1.6,1.5v10.2c-.4.3-1,.6-2,.8-.9.2-1.4.5-1.4.8s.2.6.5.7c.3.1.7.2,1,.2s.3,0,.7-.1.7-.1.9-.1c.1.1.2.2.2.3,0,.2,0,.7,0,1.3l-.2,1.7c-.3.7-1.3,2.3-2.9,4.6-1.8,2.6-3.3,4.7-4.6,6.2-.6.7-1.2,1.3-1.8,1.9-.7.8-1,1.4-1,1.8s.2.7.7.9c.5.2.9.3,1.2.3.7,0,1.5-.8,2.6-2.4,2.5-3.8,4.4-5.9,5.7-6.4v.5c0,.6,0,1.8-.1,3.6s-.2,2.8-.2,3h0c-.6-.4-1.1-.7-1.6-1.1-.5-.4-.9-.6-1.2-.6-.4,0-.6.2-.6.6s.3.6.8,1.1c.5.5.9.9,1,1.2.2.7.3,1.5.5,2.2s.6,1.2,1.2,1.2,1.4-.2,2-.6c.6-.4.8-1,.8-1.7l-.4-11.3c2-2,4.7-3.7,8-5.1,3.4-1.4,6.5-2,9.4-2s4.7.7,6.2,2.1c1.4,1.3,2.1,2.9,2.1,4.9,0,2.8-1.5,5.3-4.4,7.4-2.7,2-6.1,3.9-10.3,5.6,0,0,0,0,0,0,.1,0,.3,0,.5,0,1.7,0,4.2-.7,7.6-2.2,4-1.8,6.8-3.9,8.2-6.2.9-1.5,1.4-3,1.4-4.7,0-2.8-1.1-5-3.4-6.6Z"/>
  <path class="st0" d="M458.6,933.5c.6.4.9.6,1.1.8.5.6,1,1.3,1.6,1.9.6.7,1,1,1.4,1s.4-.1.5-.4c.1-.2.2-.5.2-.8,0-.9-.6-1.8-1.8-2.6-1.2-.8-2.3-1.2-3.3-1.2s-.5.1-.5.4.3.6.9,1Z"/>
  <path class="st0" d="M456.1,936.5c.5.7,1.1,1.5,1.7,2.3s1,1.2,1.3,1.2c.2,0,.2-.1.3-.2.2-.4.4-.8.4-1.3,0-1-.5-1.9-1.6-2.7-1.1-.8-2.1-1.2-3.1-1.2-.2,0-.4.1-.4.2,0,.2.2.4.5.8.2.2.5.5.9.9Z"/>
  <path class="st0" d="M422.3,948.2c1,.7,2,1.1,2.8,1.1.7-.1,1.4-.3,2.1-.4,2.6-.6,5.6-1.1,9.1-1.7,3.5-.6,5.7-.9,6.6-.9,0,.5.1,1.3.2,2.2,0,.9,0,1.9,0,2.8v.7c-.8-.7-1.6-1-2.5-1-1.4,0-2.5.7-3.3,2-.7,1.1-1,2.5-1,3.9s.4,2.7,1.1,3.6c.7.9,1.7,1.3,2.8,1.3s1.1-.1,1.5-.3c.5-.2.9-.5,1.2-.7,0,.1.1.2.1.3,0,.3.1.6.1,1.1,0,1.1-.1,2.3-.4,3.4-.4,1.5-.9,2.8-1.7,3.8-.8,1-1.6,1.9-2.6,2.5-1,.6-1.8,1.2-2.6,1.7,0,.2.2.4.7.4,1,0,2.5-.7,4.4-2,1.9-1.3,3-2.6,3.4-3.9.5-1.6.9-3.1,1.1-4.5.2-1.4.3-2.6.3-3.7s0-1.1-.1-2-.1-1.5-.1-1.7v-10.1c0-.1.7-.2,2.1-.4,1.4-.1,3.1-.2,5-.2s4.3.2,5.9.5h1.3c1.6.1,2.3-.3,2.3-1.3s-.2-.8-.6-1.1c-.4-.3-1-.5-1.7-.5h-.4c0,0-.5,0-1.3,0s-1.3,0-1.6,0c-1.6,0-3.8-.7-6.5-2.1-2.9-1.5-4.3-2.9-4.3-4.1s0-.4.3-.7c0,0,.1-.2.1-.3,0-.8-.6-1.5-1.7-2-.9-.4-1.8-.7-2.7-.7s-1.4.2-1.4.7.4.9,1.3,1.2,1.4.7,1.4,1.2c.2.6.2,1.6.2,3.1v1.9c0,.3,0,.7,0,1.3,0,.6,0,1,0,1.4-2.3.6-5.4,1.2-9.4,1.9-4,.7-6.8,1-8.4,1s-1.2-.2-2-.7c-.8-.5-1.4-.7-1.7-.7-.5,0-.7.2-.7.5,0,.7.5,1.4,1.6,2.1ZM442.1,958.6c-.5.8-1.2,1.2-2.1,1.2s-1.3-.3-1.7-.8c-.4-.5-.6-1.1-.6-1.9s.3-2,.9-2.9c.6-.9,1.3-1.4,2.2-1.4h.8c.4.3.8.7,1,1.2.2.5.4,1.1.4,1.8,0,1-.3,1.9-.8,2.8ZM445.3,939.1c.6.7,1.1,1.2,1.5,1.5,1.2,1.1,2.5,2.1,3.9,2.9-.8.1-1.6.2-2.4.3-.8,0-1.6.1-2.3.1s-.4,0-.7-.1v-4.7Z"/>
  <path class="st0" d="M491.7,965c-1.9-.7-3.3-1-4.1-1h-.2c1.1,1,2.1,1.9,3.2,2.9,1.3,1.2,2.5,2.6,3.6,4.1.6.8,1,1.3,1.3,1.6.5.4,1,.7,1.4.7s.5,0,.8-.2c.6-.3.9-.9.9-1.8,0-1.2-.6-2.4-1.7-3.4-1.1-1-2.9-1.9-5.2-2.7Z"/>
  <path class="st0" d="M596.1,933.9c.3.2.7.7,1.3,1.2.1.2.4.6.9,1.4.6,1,1.1,1.5,1.4,1.5s.6-.2.7-.6.3-.7.3-1.1v-.2c0-1.1-.7-2-2.1-2.7-1.1-.6-2.1-.8-3-.8-.2,0-.3.1-.3.2,0,.2.3.5.8,1Z"/>
  <path class="st0" d="M592.8,937c.7.7,1.2,1.1,1.3,1.3.1.1.4.6,1,1.5.4.7.7,1,1,1s.6-.2.8-.6c.2-.4.3-.7.3-1.1v-.2c0-1-.8-1.8-2-2.5-1-.5-1.9-.7-2.7-.7s-.5,0-.5.2.3.5.8,1Z"/>
  <path class="st0" d="M585.8,971c.5,0,1.2,0,2,0h.9c1.5,0,2.6,0,3.5-.2,1.4-.2,2.1-.7,2.1-1.3,0-.3-.4-.7-1.2-1.2-.8-.5-1.3-.7-1.7-.7s-.4.1-.9.3c-.9.4-1.5.6-1.9.6-1.8.2-3.5.3-5.2.4-1.7.1-3.2.2-4.6.2-2.4,0-4.4-.2-6-.7-2.4-.7-3.6-2-3.6-3.9s1.6-4.2,4.7-6.5c2.4-1.7,5.6-3.4,9.7-5.2,2.4-1,5.1-2,8.1-3,0,0,.1,0,.2-.3,0-.4-.5-.8-1.6-1.3-.5-.2-1-.4-1.4-.4s-1.8.8-4.7,2.3-4.5,2.3-4.8,2.3c-.3-.7-.5-1.2-.7-1.6-.5-1.3-.7-2.5-.7-3.6s.2-3,.7-4.8c.2-.8.6-2.3,1.3-4.7v-.2c0-.6-.6-1.3-1.9-2.1-1.3-.8-2.3-1.1-3.1-1.1s-.6.1-.6.3c.6.5,1.3,1,1.9,1.5.6.6.8,1.3.8,2.3s0,1.6-.3,2.9c-.4,2.7-.6,4.5-.6,5.3,0,1.1.1,2.3.4,3.3.3,1.1.7,2.1,1.3,3.2-2.4,1.7-4.8,3.5-7.2,5.2-2.2,2-3.3,4.1-3.3,6.1s1.7,4.7,5.2,5.8c2.2.7,5,1,8.5,1s1.9,0,4.5-.2Z"/>
  <path class="st0" d="M635.8,967.5c.6,0,1-.3,1.3-1,.8-1.9,2.1-4.5,3.9-7.7,1.6-2.9,2.5-4.4,2.6-4.4.6-.4,1.3-.7,1.9-1.1,1.1-.7,2.1-1,2.8-1,1.4,0,2.4.5,3.1,1.5.6.9.8,2,.8,3.5v3c0,2.3.8,4.2,2.3,5.6,1.5,1.4,3.4,2.1,5.8,2.1s1.9-.1,2.8-.3c1.9-.4,3.7-2,5.5-4.7,1.6-2.5,2.4-4.5,2.4-6s-.2-.9-.6-1c-.9,1.5-1.8,3-2.7,4.6-1.1,1.7-2.4,3-4,3.9-.6.3-1.2.6-2,.8-.7.2-1.4.3-2,.3-1.8,0-3.2-.7-4.1-2.1-.7-1.1-1.1-2.6-1.1-4.6v-1c0-1.4-.1-2.5-.4-3.4-.4-1.1-1.2-2.1-2.4-2.8-1.2-.7-2.3-1.1-3.4-1.1s-2.1.3-3.5.8c0-.3,1-2.1,3.1-5.4,2.1-3.3,3.6-5.5,4.6-6.6.7-.8,1.2-1.4,1.3-1.5.4-.6.7-1,.7-1.4,0-.6-.7-1.2-2.2-1.7-1.5-.6-2.7-.9-3.8-.9s-1.2.2-1.2.6.5.9,1.6,1.2c1.1.2,1.6.5,1.6.8s-1.2,2.7-3.7,6.9c-2.1,3.7-4.5,7.6-7.1,11.8-2.6,4.2-4.3,6.7-4.9,7.5-.4.4-.6.8-.8,1.2s-.2.7-.2,1.2c0,.6.2,1.1.6,1.6.4.4.8.7,1.3.7Z"/>
  <path class="st0" d="M705.5,945.5c0,0,1.1-.2,3-.6.6-.1,1.4-.2,2.4-.2,0,.2-.3,1.3-1,3.5-.8,2.6-1.7,5.2-2.6,7.6-1.2,3.3-2.3,6.1-3.4,8.4-.2.3-.3.6-.3.8,0,.2,0,.4,0,.7,0,.6.1,1.1.4,1.5.3.4.7.5,1.1.5.7,0,1.1-.5,1.4-1.4.9-2.8,1.9-6.2,3.2-10.2.9-2.8,1.8-5.5,2.7-8.3.7-2.1,1.1-3.2,1.1-3.4,0-.2,1.6-.6,4.6-1.1,3-.5,4.5-1,4.5-1.3,0-.4-.4-.8-1-1.3-.6-.5-1.1-.7-1.6-.7s-1,.3-2.6,1-2.5,1-2.9,1.1c.4-1.3.9-2.6,1.5-3.8.8-1.6,1.2-2.6,1.2-2.8,0-.8-.4-1.4-1.1-1.8-.7-.4-1.5-.6-2.3-.6s-1.3.1-1.9.3c-.5.2-.8.5-.8.8s.4.7,1.2.9c.8.2,1.2.4,1.2.7,0,.6-.2,1.7-.7,3.3-.5,1.6-.9,2.8-1.2,3.5-.8.2-1.4.3-1.9.4-1.5.2-2.7.4-3.6.4s-1.7-.4-2.2-1.1-.7-1.1-.9-1.1c-.5,0-.7.3-.7.9,0,1,.3,1.8,1,2.4.6.6,1.4,1,2.4,1Z"/>
  <path class="st0" d="M722.6,963.6c-1.6,0-3,.3-4.2.9-1.5.7-2.3,1.8-2.3,3.3s.7,2.2,2.2,3c1.5.8,3.1,1.2,4.8,1.2s2.4-.3,3.6-1c1.3-.7,2-1.7,2-2.8v-1.7c.5,0,2.2.8,4.9,2.4s4.3,2.4,4.7,2.4.8-.4.8-1.1,0-.8-.3-1.2c-.2-.4-.4-.7-.7-.7-2-.8-3.9-1.7-5.8-2.5-2.5-1.1-3.8-1.7-3.9-1.9-.7-1.1-1.3-2.8-1.9-5.2-.6-2.4-.8-4.3-.8-5.7s.6-2.4,1.8-3.4c1.2-1,2.6-1.5,4.1-1.5s2.2.3,3.2,1c1,.6,1.8,1,2.3,1s.9-.1,1.3-.3c.4-.2.5-.5.5-.9,0-1.2-1.6-2.3-4.7-3.2-2.5-.7-4.5-1.1-6.1-1.1s-1.2,0-1.2.3c0,.3.6.6,1.7,1,1.2.3,1.7.6,1.7.7,0,0,0,0,0,0,0,0-.1,0-.2,0-2.6.9-4.4,1.7-5.2,2.4-1.2,1.1-1.8,2.8-1.8,5.1s.2,2.9.6,4.7c.4,1.8.8,3.6,1.3,5.1-.2,0-.3,0-.4,0-.7,0-1.4-.1-2.1-.1ZM725.6,965.7c.4.3.7.9.7,1.5,0,1-.4,1.8-1.2,2.3-.6.4-1.4.6-2.5.6s-2.2-.3-3.2-.8c-.9-.5-1.4-1.1-1.4-1.7,0-.9.6-1.5,1.8-1.9.7-.2,1.7-.4,2.8-.4s2.6.1,2.9.3Z"/>
  <path class="st0" d="M809.8,954.6l-2.2,2.7h-13v-9.7h11.5c.5,0,.8-.1.8-.3s-.4-.8-1.3-1.6c-.5-.5-1.1-1-1.6-1.4l-1.8,2.2h-7.5v-8.1h13.7c.5,0,.8-.1.8-.3s-.5-.9-1.5-1.8c-.3-.3-.9-.8-1.8-1.7l-2.2,2.7h-19.8c.2-.2.3-.3.4-.4.3-.3.5-.6.7-.9l1-1.4c0,0,.3-.2.7-.4.7-.2,1-.5,1-.7s-.6-.8-1.9-1.4c-1.2-.7-2-1-2.3-1-.2.7-.3,1.2-.5,1.6-.4,1.2-.8,2.2-1.3,3-1.4,2.5-2.9,4.7-4.3,6.6-1.1,1.4-2.1,2.6-3.2,3.7-.5.5-1,.9-1.5,1.4l-.3.4h.2c.8,0,2.6-1.3,5.4-4,1.7-1.8,3.4-3.5,5.1-5.3h9v8.1h-9.8c-.9-.4-1.5-.7-2-1s-.7-.4-.8-.4v.2c-.1.1,0,.5,0,1,.1.6.2,1.2.2,1.9v9.2h-7.4c-.1,0-.5,0-1.2-.1-.7,0-1.1-.1-1.2-.1l.7,1.7c.3,0,.7-.1,1.2-.2s.9-.1,1.4-.1h18.9v10c0,.7,0,1.4-.1,2.4,0,.9-.1,1.4-.1,1.4,0,.8.2,1.2.6,1.2.6,0,1.2-.1,1.7-.4.5-.3.8-.7.8-1.3,0-.3,0-.7,0-1.1,0-.4,0-.8,0-1.4v-10.8c-.1,0,17.6,0,17.6,0,.5,0,.8-.1.8-.3s-.5-.9-1.5-1.8c-.5-.5-1.1-1-1.8-1.7ZM792,957.2h-9.8v-9.7h9.8v9.7Z"/>
  <path class="st0" d="M847.7,948.1v20.2c0,.7,0,1.4-.1,2.4,0,.9-.1,1.4-.1,1.4,0,.8.2,1.2.6,1.2.6,0,1.2-.1,1.7-.4.5-.3.8-.7.8-1.3,0-.3,0-.7,0-1.1,0-.4,0-.8,0-1.4,0-1.4,0-4.2,0-8.5,0-4.3,0-7.1,0-8.5v-6.5c0-.1.1-.3.4-.5.5-.3.7-.6.7-.7s-.2-.4-.7-.7c-.9-.5-1.5-.8-1.9-.8,0,0,.8-1.5,2.1-4.3.4-.9,1-2.2,1.9-4,0,0,.4-.3,1-.5.7-.2,1-.5,1-.7s-.7-.8-2-1.5c-1.3-.7-2.1-1-2.4-1,0,.5-.2,1-.2,1.5-.2,1.1-.4,2-.7,2.8-.9,2.8-2.3,6.1-4.2,9.7-1.5,2.7-3,5.3-4.6,7.8-1.2,1.9-2,3-2.4,3.4,0,0-.1.2-.2.4h.1c.5,0,1.7-1,3.5-3.2s3.8-4.9,6.1-8.3v3.1Z"/>
  <path class="st0" d="M874.6,938.4c.6.9,1.1,1.4,1.6,1.4s.7-.2,1-.6.4-.8.4-1.2c0-1.1-.9-2.2-2.6-3.2-1.5-.9-2.8-1.3-4-1.3s-.2,0-.3.2l3.1,3.5c.2.4.4.8.7,1.2Z"/>
  <path class="st0" d="M880.9,964.7c-1.3,3.1-2.2,4.7-2.7,4.8-.9,0-2-.8-3.5-2.4-1.5-1.6-2.8-3.6-4.1-6-1.1-2.2-2.1-4.7-2.8-7.4-.5-1.9-.9-4-1.3-6.2,0-.9-.2-1.7-.3-2.6l14.7-.9c.8,0,1.3-.2,1.3-.6s-.5-.9-1.5-1.6c-.7-.4-1.4-.9-2-1.4l-2,2.7-10.6.6c0-.5-.1-1.2-.2-1.9,0-.8,0-1.8,0-3v-4.6c0-.2.3-.4.8-.8.5-.4.8-.7.8-.9,0-.3-.7-.7-2.1-1.2s-2.4-.7-2.8-.7c.1.4.2.7.2,1,.2,1.4.4,2.6.4,3.7l.6,8.7c-1.2,0-2.5.2-3.7.2-1.3,0-2.8,0-4.4,0s-.5,0-1.4-.1c-.9,0-1.4-.1-1.6-.1l1,1.9c.4,0,.8-.1,1.4-.3.5-.1,1.1-.2,1.6-.2,1.5,0,3.5-.1,6.1-.3.3,0,.8,0,1.3,0,0,1,.2,2,.3,3,.3,2.5.9,5,1.6,7.4,1,3.4,2.2,6.4,3.7,9,1.7,2.9,3.8,5.3,6.1,7,2,1.5,3.6,2.2,5.1,2.2s.8,0,1.1-.2.4-.4.4-.8-.1-.6-.4-1.1c-.3-.5-.4-.9-.4-1.1,0-.6.2-1.9.6-3.8.4-1.9.9-3.9,1.3-5.8v-.5c0,0,0-.2,0-.3-.2,0-.9,1.5-2.1,4.6Z"/>
  <path class="st0" d="M918.7,961.6c1.1,0,2.2-.6,3.4-1.7s2.8-3.6,4.9-7.5c.9-1.5,1.6-3.3,2.2-5.2.8-2.5,1.4-4.2,1.8-5.2.2-.2.3-.5.5-.8.2-.3.2-.6.2-.8,0-.5-.4-1-1.2-1.7-.8-.7-1.2-1-1.2-1.1,0-.2.3-.2.8-.3.5,0,1,0,1.4,0,4,0,7.5,1.2,10.6,3.5,3.4,2.5,5,5.6,5,9.4v.9c0,3.8-1.4,6.8-4.3,9.1-2,1.6-4.7,2.9-8.1,3.7-1.4.3-2.9.7-4.3,1,0,.2.3.3.9.4s1.2.2,1.8.2c3.6,0,7.2-1.3,10.8-4,4.1-3,6.1-6.6,6.1-10.8s-1.9-8.5-5.7-11.3c-3.4-2.4-7.5-3.6-12.4-3.6s-9.1,1.6-12.7,4.9-5.4,7.2-5.4,12,.3,3.9,1,5.5c.9,2.2,2.2,3.3,3.9,3.3ZM916.9,948.9c.3-1.3.7-2.4,1.3-3.4,1.7-2.8,3.2-4.6,4.5-5.6,1.1-.8,2.4-1.3,4-1.5h.2c.9,0,1.3.7,1.3,2.2,0,2.7-1.1,6.3-3.3,10.7-2.3,4.6-4.6,7.3-6.8,8.1-.5,0-.9-.6-1.2-1.9-.3-1.2-.5-2.7-.5-4.5s.1-2.9.4-4.2Z"/>
  <path class="st0" d="M981.8,971.9c2.3-1.2,4.4-2.8,6.3-4.7,2.5-2.4,4.5-5.2,6-8.2s2.7-6.5,3.6-10.5c.6-2.6,1.1-5.6,1.5-8.8.3-2.5.5-3.7.6-3.7.2,0,.4,1.2.7,3.5.4,3.5.9,6.3,1.3,8.4.9,3.9,2.1,7.2,3.6,10,1.3,2.5,2.9,4.8,4.7,7.1,1.3,1.6,2.6,3.1,4,4.4.7.6,1.3,1.1,2,1.7h.3c.5-.3,1.1-.6,1.6-.9.6-.3,1.3-.5,2.1-.6.8,0,1.3-.3,1.3-.6,0,0,0,0,0,0,0,0-.1-.1-.2-.1-.8-.2-1.6-.6-2.6-1.2-1.9-1.1-3.7-2.4-5.4-4.1-2.4-2.3-4.6-5.1-6.6-8.4-1.6-2.7-2.9-5.6-3.8-8.8-.7-2.4-1.2-4.8-1.4-7-.1-1.1-.2-2.2-.2-3.5s.3-.5,1-.9c.7-.4,1-.7,1-.9,0-.4-.9-.8-2.7-1.1-1.8-.4-3.1-.6-3.8-.6,0,4.9-.3,9.5-1,13.6-.8,4.9-2.1,9.3-3.9,13-1.2,2.4-2.8,4.8-4.9,7.1-2,1.8-3.9,3.6-5.9,5.4l-.4.6h.1c.2,0,.5,0,1.1-.3Z"/>
  <path class="st0" d="M1058.4,943c2.1,1,3.1,1.9,3.1,2.7-1,1.5-2,3-3,4.4-.9,1.4-1.3,2.7-1.3,3.9s.5,2.2,1.4,3.1c1.1,1,2.9,1.9,5.3,2.5,0,.1,0,.2,0,.3,0,.2,0,.5,0,.7v.5c0,1.6,0,2.9.3,3.9.3,1.6.9,2.7,1.8,3.4.9.7,1.9,1.2,3,1.6,1.1.4,2.3.5,3.5.5,2.6,0,5-.7,7-2.1,2-1.4,3-3.2,3-5.4s-.2-1.7-.5-2.6c-.7-1.9-2.5-4.1-5.4-6.7-2.6-2.3-4.3-3.4-5.1-3.4h-.1c2,2.2,3.9,4.3,5.9,6.4,1.8,2.3,2.7,4.2,2.7,5.9s-.9,3.2-2.7,4.5c-1.7,1.2-3.6,1.8-5.6,1.8s-3.3-.6-4.1-1.7c-.7-1-1.1-2.5-1.1-4.6v-.3c0-.3,0-.7,0-1.2,0-.5.2-.7.3-.7s.5,0,1.2.2c.7.1,1.2.2,1.7.2s1.1-.1,1.7-.3c.5-.2.8-.6.8-1s-.2-.6-.5-.8-.8-.3-1.5-.3-1.5,0-2.4,0c-.9,0-1.3-.2-1.3-.3,0-.4.2-1.8.3-4,.3-5.5.6-9.2.8-11.4.2-2.1.5-3.9.9-5.4.4-1.5.8-3,1.2-4.6,0-.7-.7-1.2-2-1.7-1.3-.5-2.6-.7-3.7-.7s-.4,0-.6,0c-.2,0-.4.2-.4.3s.7.7,2.1,1.5c.7.4,1,.8,1,1.3v.2c-.3,2.1-.6,5-1,8.7-.2,2.4-.5,5.6-.8,9.7-.1,1.7-.2,3.3-.4,5,0,.2-.3.4-.6.4-1,0-2-.4-3-1.4-1-.9-1.5-1.8-1.5-2.8s.6-2.4,1.7-3.6c1.2-1.2,2.5-2.5,4-3.8,0-.8-1.2-1.9-3.5-3.1s-4.1-1.9-5.3-1.9-.7.2-.7.5,1,.9,3.1,2Z"/>
  <path class="st0" d="M1131.4,966.5c0,1.2.3,2.2,1,2.8.6.6,2,1,4.1,1h1.1c4.2,0,7.5-.4,9.8-1.1,1.8-.6,2.7-1.3,2.7-2.2s-.1-.5-.4-.8c-.3-.3-.6-.6-1-1v-7c0-.3,0-.7,0-1,0-.4,0-.6-.2-.6h0c0,.2-.2.4-.3.7-.8,2.9-1.3,5.8-1.6,8.7-.7,1.5-3.5,2.2-8.4,2.2h-1.6c-1.1,0-1.8-.1-2.1-.4-.5-.4-.7-1.1-.7-2.3v-21.8c.3-.2.7-.5,1-.7.3-.2.5-.5.5-.7,0-.4-.6-.8-1.7-1.2-1.1-.4-1.9-.7-2.4-.7l.4,4.3v21.8Z"/>
  <path class="st0" d="M1138.3,933.8c.3.5.7,1.3,1.2,2.2.2.8.4,1.7.6,2.6.2.9.7,1.4,1.3,1.5,1.2,0,1.8-.8,1.8-2.3s-.6-2.9-1.9-4.2c-1.3-1.3-2.7-2.1-4.1-2.3-.2,0-.4,0-.6,0,0,.1.2.5.7,1,.3.4.7.9,1,1.4Z"/>
  <path class="st0" d="M1154.1,953.7c.5.7,1.1,1.9,1.7,3.4.9,2.4,1.6,3.6,2.2,3.6s1-.2,1.3-.7c.3-.5.5-.9.5-1.5,0-1.9-1-3.8-3-5.8-1.6-1.6-3.4-2.8-5.4-3.8l-.7-.2h-.2c.8,1.1,1.3,1.8,1.7,2.3.4.5,1,1.3,2,2.5Z"/>
  <path class="st0" d="M1117.9,962.1c.3.2.7.4,1.1.4,1.7,0,3.1-1.3,4.1-3.8.9-2,1.3-4,1.3-6s0-1.2-.2-2.3c-.1-1.1-.3-1.6-.5-1.6,0,0-.1.2-.1.2,0,.2,0,.4,0,.7-.1,1.3-.3,2.3-.5,3-.4,1.7-1.1,3-2,4-.8.7-1.6,1.5-2.4,2.2-.9.9-1.3,1.6-1.3,2.1s.2.7.5,1Z"/>
  <path class="st0" d="M1194.4,975.1h3.1v-21c1.6,2.1,3.6,4.8,4.4,6.2l2-2.5c-.9-1.2-4.9-5.6-6.3-7v-3.1h6.3v-3h-6.3v-9.2c2.1-.7,4.1-1.5,5.6-2.3.5,0,.6,0,1-.2l-2.8-2.4c-3.2,2-9.2,3.9-14.5,5.2.4.6.9,1.7,1.1,2.3,2.1-.5,4.4-1,6.6-1.7v8.2h-7.4v3h6.9c-1.6,5.7-4.7,12.2-7.4,15.8.6.7,1.4,2,1.7,2.9,2.2-3,4.5-7.9,6.2-12.9v21.6Z"/>
  <path class="st0" d="M1204.5,936.6c8-.7,17.4-1.9,22.8-3.4.6,0,.7,0,.9-.1l-2.7-2.3c-4.9,1.5-14.1,2.8-21.9,3.5.3.6.7,1.7.8,2.3Z"/>
  <path class="st0" d="M1201.5,972.6l2.6,1.7c2-2.3,3.1-6.1,3.8-9.2l-2.7-1c-.7,3-1.9,6.4-3.7,8.5Z"/>
  <path class="st0" d="M1228.8,937.1l-3.3-1.6c-1.1,2.6-3.1,6.2-4.7,8.4,0,0,.9.4,1.5.8h-16.8v2.5h19.9v4h-18.9v2.5h18.9v4h-20.1v2.6h8.3l-1.6,1.2c2.5,1.2,5.4,3.3,6.8,5l2.1-1.8c-1.3-1.4-3.8-3.2-6.1-4.4h13.6v-15.6h-5.1c1.5-2.1,3.3-5.2,4.4-7.3.5,0,.9,0,1-.3Z"/>
  <path class="st0" d="M1210.8,943c-.4-1.6-1.6-4.1-2.9-5.8l-2.5.9c1.2,1.9,2.3,4.3,2.7,6l2.7-1Z"/>
  <path class="st0" d="M1216,936.1l-2.6.7c.9,2,1.8,4.7,2.1,6.4l2.8-.9c-.3-1.7-1.2-4.3-2.2-6.3Z"/>
  <path class="st0" d="M1222.9,964.6c2.5,2.7,4.7,6.6,5.5,9.3l2.8-1.4c-.9-2.6-3.2-6.4-5.7-9.1l-2.6,1.2Z"/>
  <path class="st0" d="M1220.1,971.6h-5.4c-1.6,0-1.8-.2-1.8-1.1v-6c.6,0,.9-.3.9-.7l-3.8-.2v6.9c0,3.1.9,3.8,4.4,3.8h6.1c2.7,0,3.6-1,3.9-5.2-.9-.2-2-.7-2.6-1.1-.1,3.3-.4,3.7-1.7,3.7Z"/>
  <path class="st0" d="M1292.5,940.6h-1.2c-2,0-4.7.6-7.9,1.9-2,.8-4.5,2-7.5,3.5-2.5,1.3-3.8,1.9-4,1.9s-.7-.7-1.5-2.2c-.8-1.5-1.3-2.5-1.3-3,0-.7.4-1.3,1.2-1.6.8-.3,1.6-.4,2.5-.4s2.7.3,5,1c2.2.6,3.7,1,4.4,1s.7,0,1-.3c.3-.2.5-.5.5-.9,0-.9-.7-2.3-2-4.2-1.4-1.9-2.4-2.8-3.2-2.8s-.6.2-.6.5.4,1.3,1.2,2.7c.8,1.3,1.2,2.1,1.2,2.3s-.2.2-.5.2c-1.4-.2-2.8-.4-4.2-.6s-2.6-.3-3.6-.3-2.7.2-4,.7c-1.6.6-2.4,1.5-2.4,2.6s.6,1.9,1.9,3.8c1.3,1.9,1.9,2.9,1.9,3.1s-1.1.8-3.4,2c-2,1-3.4,1.7-4.1,1.9h-.5c-.3,0-.8-.2-1.5-.6-.7-.4-1.1-.6-1.4-.6-.5,0-.7.2-.7.7,0,.6.6,1.4,1.7,2.2s2.2,1.3,3.3,1.3,1.3-.4,2.6-1.3c1.3-.9,2.9-2.1,5-3.7,0,0,.8,1.2,2.1,3.8,1.7,3.2,3.1,5.9,4.1,8.1,1.5,3.2,2.4,5.6,2.8,7.1.2.8.5,1.4.9,1.8.4.4.9.6,1.3.6s.9-.2,1.2-.5c.3-.3.5-.7.5-1.3s-.2-1.4-.7-2.1c-1.1-1.6-2.5-4.1-4.3-7.3-2-3.5-3.3-6-4.1-7.5-1.2-2.3-1.8-3.5-1.8-3.6.6-.8,2.7-2,6.5-3.7,4.3-1.9,8.1-3,11.3-3.3h.9c1.8,0,3.2.4,4.2,1.2,1,.8,1.5,1.7,1.5,2.8,0,1.9-1.3,3.3-3.9,4.1-1.7.5-3.8.8-6.3.8s-2.8-.1-4.7-.3c-1.9-.2-3.7-.4-5.5-.6-.2,0-.4,0-.5,0-.2,0-.4.2-.4.3,0,.4,1.5,1,4.6,1.7,3.1.7,6.1,1.1,9,1.1s4.8-.4,6.5-1.2c2.3-1.1,3.5-2.8,3.5-5.1s-.7-3.3-2-4.8c-1.3-1.5-3-2.3-5.1-2.6Z"/>
  <path class="st0" d="M1361.3,947c-.4,0-.7.1-.7.3,1.1,1.5,2.2,2.9,3.3,4.4,1,1.4,1.5,2.6,1.5,3.6s-.3.6-.9.6l-2.3-.2c-.7,0-1,.2-1,.7s.4.6,1.3.8c2.1.6,3.5,1.3,4.3,2.1.1.2.3.2.7.2s.7,0,1-.3c.3-.2.5-.4.5-.6v-.6c0-2.5-1-5-3-7.5-1.8-2.3-3.4-3.4-4.7-3.4Z"/>
  <path class="st0" d="M1351.2,945.3c-.5-.7-1.1-1.2-1.9-1.5-.8-.3-1.7-.5-2.7-.5s-2.3.2-3,.7c.3-.6.5-1.1.6-1.4.5-1.1.9-2,1.1-2.4.2-.4.5-.8.8-1.2.3-.4.4-.8.4-1.2,0-.9-.7-1.7-2.1-2.4-1.2-.6-2.3-.9-3.4-.9s-.9.1-.9.4.6.9,1.8,1.8c.5.4.7.8.7,1.2s-.4,1.8-1.1,3.7c-.7,1.9-1.1,2.9-1.1,3-.2.3-1,.7-2.4,1-1.4.3-2.4.5-3.1.5s-1-.2-1.7-.6c-.7-.4-1.2-.6-1.5-.6s-.5.1-.5.4c0,.7.4,1.5,1.2,2.4.8,1,1.6,1.5,2.4,1.5,1.2-.3,2.5-.7,3.8-1.1h0c0,.5-1,2.8-2.9,6.9-1.8,3.7-3.4,7.1-5,10.2-.3.7-.5,1.3-.5,1.8,0,1.1.5,1.6,1.5,1.6s.9-.2,1.3-.5c.4-.3.8-.8,1.1-1.5,1.1-2.4,2.3-5.2,3.6-8.5,1.2-3,2.2-5.6,3.1-7.8.4-1.1.8-2.2,1.3-3.4.7-.5,1.3-.9,2-1.1.6-.2,1.3-.3,1.9-.3h.2c1.1,0,1.8.1,2.1.4.4.2.6.9.6,1.9,0,2.5-.6,5.7-1.7,9.8s-2.1,6.2-3,6.4c-.2,0-.5,0-.9.2h-.5c-.7,0-1.5-.2-2.4-.5-.9-.3-1.4-.5-1.5-.5-.2,0-.4.1-.4.3,0,.7.6,1.5,1.7,2.4s2.1,1.3,2.9,1.3,1.2,0,1.8-.3c.7-.2,1.2-.4,1.7-.6,1.3-.6,2.5-2.8,3.5-6.6s1.6-7.3,1.6-10.5,0-1.8-.2-2.5c-.1-.7-.3-1.2-.6-1.6Z"/>
  <path class="st0" d="M1415.1,940.7c2.2.5,3.8.7,4.9.7h.4c-.1,0-.2.2-.3.2-.5.2-1.1.7-1.9,1.2-.9.7-1.6,1.3-2.1,1.9-.7.7-1.1,1.4-1.1,1.9s.1.5.4.5,1.1-.5,2.4-1.4c3-2.2,5.1-3.5,6.5-3.9,2.3-.4,4.5-.8,6.8-1.2.3,0,.5-.3.5-.6,0-.5-.4-1.1-1.1-1.7s-1.4-.9-2.1-.9-2,.3-4.4.9c-2.4.6-4.2.9-5.5.9s-1.5,0-2.5-.1c-2-.2-3.1-.3-3.4-.3-.5,0-.8.1-.8.3,0,.5,1.1,1,3.3,1.5Z"/>
  <path class="st0" d="M1434.9,960.5c-.6.2-1.1.4-1.7.6-.6.2-1.3.3-2.1.3s-1.9,0-3.4.2-2.5.2-3.3.2c-1.4,0-2.8-.1-4.3-.3-1.5-.2-2.9-.6-4.2-1.2-1.3-.5-2.3-1.8-3-3.7-.7-1.9-1.1-2.9-1.3-2.9s-.5.2-.6.5c-.2.3-.2.8-.2,1.3,0,2.5,1,4.4,2.9,5.9,1.5,1.1,3.6,1.9,6.4,2.4,1.9.3,4.1.5,6.8.5s2.9-.1,6.4-.3c1.5,0,2.8-.1,4-.1s.5-.1.5-.4c0-.5-.4-1.1-1.1-1.8-.7-.7-1.4-1-1.9-1Z"/>
  <path class="st0" d="M1404.4,967.9c.4-.3.6-.6.6-1s0-.7-.2-1.6-.2-1.6-.2-2.1v-1.5c0-2,.5-4.8,1.6-8.1.9-3,2-6.2,3.3-9.6,0,0-.1-.1-.3-.2-.5,0-1.1.8-2,2.3-.4.8-1,2-1.7,3.6-1.1,2.5-2.1,5.3-2.9,8.5-.2.6-.3,1.3-.5,2.1-.2,0-.4-.7-.6-2.2-.2-1.5-.3-2.5-.3-3,0-2.4.4-5,1.3-7.9.7-2.2,1.4-4.1,2.2-5.5.1-.2.2-.5.2-.7,0-.9-.6-1.8-1.8-2.9-1.2-1.1-2.2-1.6-3.1-1.6s-.2,0-.5.1c-.2,0-.4.2-.4.3.6.8,1.2,1.5,1.8,2.3.5.7.7,1.3.7,1.9v.3c-.6,2.2-1.2,4.4-1.8,6.6-.7,2.8-1,5.4-1,7.8s.3,4.5.9,7.1c.8,3.6,2,5.4,3.4,5.4s.9-.1,1.4-.4Z"/>
  <path class="st0" d="M1474.5,936.4c.3.6.7.9,1,.9s.7-.2.9-.5c.2-.3.3-.7.3-1.1,0-1.2-.7-2.1-2-2.9s-2-.9-3.5-1.1c-.1,0-.2,0-.4.1l2.6,2.7c.3.6.6,1.2,1,1.8Z"/>
  <path class="st0" d="M1497.7,960.8c0,.4.2.6.6.6s.9-.1,1.3-.4c.4-.3.6-.6.6-1.1l-.2-5.8c0-.1.2-.3.5-.5.3-.2.5-.4.5-.6,0-.3-.3-.7-1-1.2-.5-.3-1-.6-1.5-.9l-.9,1.3h-9.1c-.3-.3-.7-.6-1.3-.8-.5-.2-1-.4-1.4-.5.1.4.2.9.3,1.4,0,.5.1.9.1,1.3v2.1l-.3,5.4c0,.5.2.8.7.8s1-.1,1.4-.4.6-.6.6-1.1v-.6c-.1,0,9.2,0,9.2,0v1.1ZM1488.5,958.5v-5.3h9.4v5.3h-9.4Z"/>
  <path class="st0" d="M1467.5,942.5c.7.4,1.7,1.8,3.2,4.1.6.9,1,1.4,1.4,1.4s.8-.2,1-.5c.2-.4.3-.8.3-1.2,0-1.1-.7-2.1-2.1-3-1.1-.7-2.3-1.1-3.6-1.3-.2,0-.4,0-.5,0,0,0,0,.1,0,.1,0,.1.2.2.4.3Z"/>
  <path class="st0" d="M1479.5,948.6c0,1.8,0,4.5-.1,8.1s-.1,6.3-.1,8.1.2.9.7.9c.7,0,1.2-.2,1.5-.5.3-.4.4-.9.4-1.7v-15.4h22.3v13.2c0,1.1-.2,1.7-.5,2-.4.3-1.1.4-2.1.4h-.5c-.4,0-1,0-1.7,0-.7,0-1.2,0-1.3-.1,0,0-.2,0-.3.1,0,0,0,0,0,0,0,0,.2.1.2.1.8.2,1.6.5,2.2.8.6.3,1.1.6,1.3,1,0,0,.2.4.5,1,.1.3.4.4.7.4,1.1-.2,2.1-.9,2.9-1.8.8-1,1.1-2,1.1-3.1v-13c0-.2.2-.3.5-.6.3-.2.5-.4.5-.7s-.4-.7-1.2-1.4c-.8-.6-1.3-.9-1.5-.9l-1.1,1.4h-2.1v-11.7c0,0,.1-.2.4-.4.5-.3.7-.5.7-.7s-.2-.6-.7-1c-.9-.8-1.5-1.2-1.9-1.2l-1,1.5h-13.1c-.3-.3-.8-.6-1.3-1-.6-.3-1.1-.5-1.4-.5,0,.3,0,.6,0,.7.2,1.2.2,2.1.2,2.7v11.5h-1.9c-.1-.1-.2-.2-.3-.3-.3-.2-.6-.4-.9-.6-.3-.2-.6-.3-.8-.3-.2,0-.4,0-.6,0,0,.3,0,.5,0,.7.2,1.1.2,1.9.2,2.4ZM1499.6,946.8h-5.8v-6.8h5.8v6.8ZM1486,934.4h13.6v4.4h-5.7c-.2-.3-.6-.5-1.1-.7-.5-.2-1-.3-1.4-.4,0,.3.2.7.2,1.1,0,.4,0,.9,0,1.6v6.5h-5.6v-12.4Z"/>
  <path class="st0" d="M1508.6,968.6c-2.1.6-4.7,1-7.9,1.2-1.9.1-4.7.2-8.2.2s-4.5-.1-6.4-.4-3.5-.7-4.8-1.3c-1.4-.6-2.7-1.4-3.9-2.3-1.2-.9-1.9-1.6-1.9-2v-6.7c0-.1.2-.3.6-.6.4-.2.6-.5.6-.7,0-.3-.4-.7-1.1-1.3-.7-.6-1.2-.9-1.5-.9l-1,1.3h-4.6c0,0-.4,0-1-.1-.6,0-1-.1-1.1-.1l1.3,1.8c.1,0,.4,0,1-.2.5-.1.8-.2.9-.2h3.7v8.5c-.7.7-1.9,1.6-3.5,2.7-1.8,1.2-3.1,1.8-3.8,1.8l1.4,2.2c.4.6.7.9,1,.9s.3-.2.5-.6c.2-.4.3-.6.3-.7.3,0,1.5-1.4,3.7-4.3,1.1-1.5,1.7-2.2,1.8-2.4.7.9,1.2,1.6,1.7,2,1.5,1.5,3.1,2.7,4.8,3.4,2,.9,4.3,1.6,6.8,2,2.5.4,4.9.7,7.2.7,2.3,0,5.2.1,8.8.1s3.4-.1,3.5-.4c.3-.8.6-1.7,1-2.5,0-.2.3-.5.5-.8s.4-.5.4-.6h-.1c0,0-.7,0-.7,0Z"/>
  <path class="st0" d="M1569.6,939.9c-.6-.5-1.3-1-2.2-1.5-.9-.5-1.6-.7-2.1-.7h-.3c0,.5.7,1.5,2.2,3.1s2.4,2.4,3,2.4.4-.2.4-.6v-.5c0-.5,0-.9-.2-1.2-.1-.3-.3-.6-.7-.9Z"/>
  <path class="st0" d="M1547.7,942.9c2.3,1.1,3.4,1.8,3.4,2-.9.6-1.7,1.1-2.5,1.7-.8.5-1.2,1.1-1.2,1.7s.1.5.3.5c1.4-.6,2.8-1.2,4.2-1.9,1.4-.6,2.7-1,4-1.3.6,0,1.7-.2,3.3-.4,1.6-.2,2.7-.4,3.4-.6.8-.3,1.2-.7,1.2-1.4s-.2-.8-.6-1.1-1-.5-1.7-.5-1.9.1-3.5.4c-1.6.2-2.7.4-3.4.4-1.1,0-2.1,0-3.2-.3s-2.3-.7-3.9-1.4-2.4-1.1-2.6-1.1-.4.2-.4.5c0,.7,1.1,1.6,3.4,2.7Z"/>
  <path class="st0" d="M1566.2,965h-.5c-1.2.2-2.4.4-3.6.6-3.1.5-6,.7-8.7.7h-1.1c-2.1,0-3.7-.2-4.7-.5-1.6-.5-2.9-1.4-3.8-2.8-.2-.3-.4-1.1-.6-2.3-.4-2.2-.8-3.4-1.2-3.4s-.7.2-.8.7c-.2.5-.3,1.1-.3,1.9,0,4.1,1.6,6.8,4.7,8.1,1.9.8,5.2,1.2,9.8,1.2s3.8,0,5.7-.2c1.8-.2,4.1-.4,6.7-.7.6,0,.9-.4.9-1.1s-.2-1.1-.6-1.5-1-.6-1.9-.6Z"/>
  <path class="st0" d="M1572.5,936c-1.4-1-2.6-1.5-3.5-1.5-.2,0-.4.2-.4.2,0,.2.3.5.8,1,.9.7,1.3,1.1,1.4,1.1.3.3.8,1,1.6,2.2.6.9,1,1.4,1.4,1.4s.3-.1.5-.4c.2-.3.3-.7.3-1.1,0-1-.7-1.9-2.1-2.9Z"/>
  <path class="st0" d="M1645,946.7c-1.4,0-2.7-.2-4.1-.6-.5-.1-1.6-.7-3.1-1.8-.6-.4-1-.6-1.3-.6s-.3,0-.4.2c0,.1-.1.3-.1.4,0,.4.5,1.1,1.4,1.9.9.8,1.4,1.3,1.4,1.5s-.4.3-1.2.4c-.8.1-1.7.2-2.6.2s-.2-.2-.2-.7v-.5c0-.5,0-1.5.1-3.1,0-1.6.2-2.5.2-2.9,0-.4.1-.8.3-1.4.1-.5.2-.9.2-1.2,0-.8-.6-1.4-1.7-1.8-.7-.2-1.6-.4-2.7-.4s-1.1,0-1.4.2c-.4.1-.5.3-.5.6,0,.5.5.8,1.4,1.1.9.3,1.4.7,1.4,1.1.1,1.2.2,3.1.2,5.6s0,1.2,0,2c0,.7-.1,1.3-.2,1.7-.7,0-1.9.2-3.6.5-1.7.4-4.2.9-7.4,1.6v-.3c0-1.3.2-2.5.3-3.7s.2-2.2.2-3.1c0-1.4-.4-2.3-1.1-2.8-.7-.5-1.8-.8-3.4-.8s-1.3,0-2,.2c-.7.1-1,.4-1,.7,0,.5.5.9,1.6,1,1,.2,1.7.4,1.9.7.1.2.2.6.3,1.2,0,.7,0,1.6,0,2.9s0,1.1,0,2.2c0,1.1,0,1.9,0,2.5-.2.2-1.6.6-4.1,1.3-2.5.7-4.1,1-4.8,1s-1-.5-1.2-1.4c-.2-.9-.6-1.4-1.1-1.4-.9,0-1.4.7-1.4,2s.3,2,.9,2.8,1.4,1.2,2.5,1.2,2-.5,4.5-1.4c2.5-1,4-1.4,4.5-1.4s.2,0,.3.2v7.4c-.1,2.2,0,3.8.5,4.8.7,1.6,2,2.3,4,2.3s2.7.1,7.7.4c1.7,0,3.3.1,4.8.1h.9c1.6,0,2.8,0,3.9-.3,1.6-.3,2.4-.8,2.4-1.5s-.3-.8-.8-1.1c-.5-.3-1.2-.5-2.1-.5h-.8c-1.5.2-3.4.4-5.8.5-2.4.2-4.3.2-5.7.2s-.8,0-1.2,0c-.4,0-.7,0-.9,0-1.8-.3-2.8-.5-3-.6-.6-.3-.9-1.1-1.1-2.4-.1-1.3-.2-2.9-.2-5.1s0-3,0-4,.2-1.6.3-1.6c.3,0,2.3-.6,6.2-1.5,2.2-.5,3.8-.9,4.9-1v.2c0,1,0,2.1-.2,3.4-.1,1.3-.2,2.3-.4,3.2-.2.8-.6,1.3-1.4,1.3s-2.2-.5-3.6-1.4c-1.4-.9-2.9-1.9-4.5-3.1-.2,0-.3,0-.3.3,0,.5.6,1.5,1.9,2.8,1.3,1.3,2.5,2.3,3.7,3s2.3,1,3.6,1c2.7,0,4-1.3,4-3.9v-5.7c0-.9,0-1.3.2-1.3.7-.2,1.7-.3,3-.4,1.2,0,2.7-.1,4.3-.1h3.2c.6,0,1.1-.2,1.4-.5.1-.2.2-.4.2-.6,0-.5-.2-1-.7-1.4-.4-.5-.9-.7-1.5-.7Z"/>
  <path class="st0" d="M1707.7,952.9c-2.2-2-5.2-3-8.8-3s-2.4.1-3.7.3c-1.2.2-2.5.6-3.9,1.1,0-.2,1.2-1.8,3.7-4.7,2.6-3.1,4.6-5.3,5.9-6.4.5-.3,1-.6,1.5-.9.7-.5,1.1-.9,1.1-1.2s-.4-.9-1.2-1.5c-.8-.6-1.4-.9-1.8-.9-2.3.8-4.6,1.6-6.8,2.3-2.1.7-3.9,1-5.2,1s-1.8-.4-2.8-1.3c-1-.9-1.6-1.3-2-1.3s-.6.2-.6.5c0,.9.6,1.8,1.8,2.7,1.1.8,2.1,1.2,3.2,1.2s1.4,0,2.4-.2c2-.3,4.1-.6,6.1-1,0,.2-.6,1.2-1.9,3.1-1.5,2.2-3.2,4.6-5.2,7.2-2.5,3.2-5.1,6.2-7.8,9.1-.5.6-.9,1.1-1.2,1.6-.2.5-.4.9-.4,1.3,0,.7.3,1,1,1s1-.2,1.6-.7c.6-.4,1.2-1,1.7-1.8.5-.8,1.4-1.8,2.6-3.1,1.2-1.3,1.8-2,2-2,2.1-1.1,4-2,5.8-2.5,1.7-.5,3.3-.8,4.9-.8,2.6,0,4.7.8,6.2,2.3,1.4,1.4,2.1,3.2,2.1,5.4s0,1.4-.2,2c-.4,2-1.7,3.8-4,5.5-1.8,1.4-3,2.1-3.6,2.1-.2-2.1-.8-3.7-1.7-4.8-1.1-1.3-2.5-2-4.5-2s-2.9.3-4,1c-1,.7-1.5,1.5-1.5,2.5,0,1.6,1.1,3,3.4,4.1,1.8.8,3.7,1.3,5.5,1.3,3.4,0,6.4-.9,9.2-2.7,2.9-1.9,4.4-4.3,4.4-7.1v-.9c0-3.2-1.1-5.8-3.3-7.8ZM1697.4,969.4c0,.2-.4.3-1,.3-1.1,0-2.3-.3-3.6-1-1.5-.7-2.2-1.6-2.2-2.7s.3-1.2.9-1.6,1.3-.7,2.1-.7c1.2,0,2.2.6,2.8,1.8.6,1,.9,2.1.9,3.4v.4Z"/>
  <path class="st0" d="M1786.4,942.2c-1.1-.9-1.7-1.4-1.9-1.4l-2,2.5h-6.7v-8c0,0,.2-.3.6-.6.4-.4.6-.6.6-.9,0-.4-.5-.7-1.6-1-1.1-.3-1.9-.4-2.5-.4.1.4.2.9.3,1.4,0,.5.1,1.1.1,1.7v7.8h-14.2v-8.2c0,0,.2-.2.7-.6s.7-.6.7-.8c0-.3-.6-.6-1.8-1-1.2-.3-2.1-.5-2.6-.5l.5,3.5v7.5h-9.2c-.1,0-.8,0-2-.2-.2,0-.5,0-.7,0l.9,1.7c.2,0,.6,0,.9-.2.4,0,.8-.1,1.4-.1h8.6v15.1c0,.4,0,1.9-.1,4.6,0,2.6-.1,4.8-.1,6.5s.3,1.3.8,1.3c.8,0,1.3-.2,1.6-.5.2-.4.4-1,.4-1.8v-1.6h14.2v2.7c0,.4,0,.7.2.8.2.2.5.3,1,.3.6-.2,1-.4,1.2-.7.2-.3.3-.8.3-1.5v-1.5c0-2.8,0-7.4,0-13.9,0-6.4,0-9.7-.1-9.8h11.6c.3,0,.5-.2.5-.4s-.5-.8-1.6-1.8ZM1773.3,966.7h-14.2v-11.1h14.2v11.1ZM1773.3,954.5h-14.2v-10.1h14.2v10.1Z"/>
  <path class="st0" d="M1818.4,956.9h5.9v2c0,.5.2.8.6.8s.6,0,1-.1c.6-.2.9-.5.9-1.1v-1.8l-.2-16.2c0-.1.3-.3.8-.5.5-.2.8-.5.8-.7s-.5-.7-1.4-1.4c-.3-.2-.8-.6-1.4-1l-1.5,1.4h-5.4c-.3-.3-.6-.5-1-.7-.4-.2-.9-.4-1.7-.7,0,.5.1,1,.2,1.5,0,.5,0,1.1,0,1.6v20.2l-.2,3.5c0,.6.2.9.6.9.6,0,1.1-.1,1.6-.3.5-.2.7-.6.7-1l-.3-1.1v-5.1ZM1818.4,939.3h5.9v16.6h-5.9v-16.6Z"/>
  <path class="st0" d="M1858,965.4c-3.3-1.2-6.4-3.3-9.4-6.2-2.9-3-5.1-6.1-6.4-9.5h11.9c.6,0,.9-.1.9-.3s-.4-.8-1.3-1.5c-.7-.6-1.2-1.1-1.6-1.4l-1.7,2.1h-9.1v-7.8h11.3c.5,0,.8-.1.8-.3,0-.3-.5-.9-1.4-1.7-.6-.5-1.2-1-1.8-1.5l-2,2.5h-6.9v-5.7c0-.2.2-.4.7-.7.4-.3.7-.5.7-.7,0-.3-.6-.6-1.7-.9-1.1-.3-1.9-.5-2.4-.5.1.6.2,1.1.3,1.8,0,.6.1,1.3.1,2v4.8h-6.8c-.3,0-.7,0-1.4-.1-.7,0-1-.1-1-.1l.7,1.7c.5,0,.9-.1,1.4-.2.5,0,.9-.1,1.2-.1h6v7.8h-8.8c0,0-.5,0-1.2-.1-.7,0-1.1-.1-1.2-.1l.7,1.7c.5,0,.9-.1,1.4-.2.5,0,.9-.1,1.2-.1h6.7c-.4,1-.8,1.8-1.2,2.6-1.1,2.2-2.5,4.4-4.2,6.5-1.5,2-3.3,3.8-5.3,5.5-1.6,1.4-3.3,2.7-5.4,3.9,0,0-.2.2-.3.3,0,0,0,0,0,.1h.1c.9.1,2.8-1,5.9-3.2,2.6-1.9,4.4-3.4,5.3-4.3,1.5-1.6,3.1-3.5,4.6-5.7.5-.7,1.1-1.6,1.8-2.7v15.3l-.3,2.7c0,.4,0,.7.2.8.1,0,.5.1,1.2.1.6,0,1-.2,1.2-.4.2-.2.3-.5.3-.9l-.2-1.7v-19c.4,1.1.7,1.9.9,2.6.8,2,1.7,3.8,2.7,5.4.8,1.3,2.3,3.2,4.4,5.7,2.7,3.2,4.4,4.7,5.1,4.7s.4,0,.6-.2c.2-.1.6-.4,1-.7.3-.2,1-.5,2.2-.9.3-.1.5-.2.5-.3,0,0-.2-.2-.2-.2-.2-.2-.5-.3-.7-.3Z"/>
  <path class="st0" d="M1897.1,963c2.8-5.7,4.6-13.1,5.3-22.8,0-.2.2-.4.2-.7l-1.8-.5h-.6c0,0-8.5,0-8.5,0,.4-2.3.8-4.6,1.1-7,.6,0,.9-.2,1-.6l-4.1-.8c-1.2,10-3.3,19.8-6.9,25.3.7.5,1.8,1.6,2.2,2.2,1.3-2,2.4-4.4,3.4-7.1,1.3,4.9,2.9,8.7,4.9,11.7-2.6,4.5-5.9,7.6-9.8,9.7.7.6,1.5,1.8,2,2.6,4-2.2,7.3-5.3,9.8-9.5,5.8,6.8,13.6,8.3,22.1,8.3h8.3c.2-.9.7-2.3,1.2-3.1h-9.4c-7.9,0-15.2-1.3-20.7-8ZM1895.1,960c-2.1-3.4-3.7-7.8-4.9-13.5.4-1.5.8-3.1,1.1-4.6h8c-.7,7.4-2.1,13.4-4.2,18.1Z"/>
  <path class="st0" d="M1904.2,966c4.6-6.4,5.4-15.7,5.4-22.2v-6.7h8.3v22.7c0,3.6,0,5.8,3.3,5.8h2.1c3.4,0,3.6-2.2,3.7-10.1-.8-.2-1.8-.7-2.4-1.2,0,3,0,7.7-.6,8.2-.2.4-.4.4-2.1.4s-1-.4-1-2.7v-25.8h-14.4v9.5c0,6.1-.5,14.5-5,20.6.7.3,2,1.2,2.6,1.7Z"/>
  <path class="st0" d="M1962.2,963.3c-1.1-1.2-2.5-1.8-4.4-1.8s-3.3.6-4.4,1.8c-1,1.1-1.4,2.4-1.4,4.1s.5,3,1.6,4.1,2.5,1.7,4.3,1.7,3.3-.6,4.4-1.8c1-1.1,1.4-2.4,1.4-4s-.5-2.9-1.5-4.1ZM1960.8,970.1c-.7.8-1.6,1.2-2.9,1.2s-2.2-.4-2.8-1.2c-.7-.8-1-1.7-1-2.7s.3-2,1-2.7c.7-.8,1.6-1.2,2.8-1.2s2.2.4,2.9,1.2c.7.8,1,1.7,1,2.7s-.3,2-1,2.7Z"/>
  <path class="st0" d="M452.4,1028.3h12.5v-3.1h-14.7v-9.5c.7,0,.9-.3,1-.6l-4.1-.3v10.5h-13.9v3.1h11.8c-3.1,8-8.3,16-13.6,20,.7.6,1.8,1.7,2.3,2.4,5.2-4.4,10.3-12.5,13.4-20.9v16.5h-7.9v3h7.9v9.5h3.1v-9.5h7.7v-3h-7.7v-16.7c3.1,8.4,8,16.6,13.2,21,.6-.8,1.7-2,2.4-2.5-5.3-4-10.5-11.9-13.4-19.8Z"/>
  <path class="st0" d="M430,1026.3c1.7-3.2,3.1-6.5,4.4-9.9.6,0,.9,0,1.1-.4l-3.8-1.3c-2.8,8.3-7.4,16.5-11.9,21.5.5.8,1.3,2.2,1.7,3,2-2.3,4-5,5.8-8v27.6h3.1v-31.6c.6,0,.9-.3,1-.6l-1.3-.3Z"/>
  <path class="st0" d="M525.1,1050.2c-.8-.5-1.5-.7-1.9-.7s-.6.2-1.3.5c-.7.3-1.3.5-1.7.5-2.1.2-4.1.4-6,.5-1.9.2-3.6.3-5.1.3h-.2c-2.5,0-4.4-.4-5.6-1.2-1.3-.8-1.9-1.8-1.9-3.1,0-2.3,1.6-4.6,4.8-6.9,2.4-1.7,5.7-3.4,10-5.1,1.5-.6,4.3-1.6,8.5-3,.2,0,.4-.2.4-.4,0-.4-.4-.9-1.1-1.4-.8-.5-1.4-.8-1.9-.8s-1.9.9-5.1,2.6c-3.2,1.7-5,2.6-5.5,2.6-.2-.5-.3-1-.4-1.3-.3-1.1-.4-2.1-.4-3s0-2.3.3-4c.2-1.7.4-3,.6-3.8.2-.5.4-1,.7-1.5.2-.5.3-1,.3-1.4,0-.7-.8-1.4-2.3-2.3-1.5-.9-2.7-1.3-3.5-1.3s-.5.1-.5.4.4.7,1.2,1.5c.8.8,1.2,1.7,1.2,2.7s-.1,2-.4,3.6c-.2,1.6-.4,2.9-.4,3.9s.2,1.9.7,3.3c.8,2.5,1.2,3.9,1.2,4s-.9.7-2.7,2c-2.1,1.4-3.7,2.8-4.9,4-1.7,1.9-2.6,3.8-2.6,5.6,0,2.7,1.4,4.6,4.3,5.8,1.9.7,4.5,1.1,7.7,1.1s1.8,0,2.7,0c2.2-.2,3.4-.2,3.5-.2,2.6,0,4.5,0,5.6-.2,2-.2,3.1-.7,3.1-1.5,0-.4-.6-.8-1.4-1.3Z"/>
  <path class="st0" d="M566.8,1032.3c0,0-.1.2-.1.2,0,.2,0,.4,0,.7-.1,1.3-.3,2.3-.5,3-.4,1.7-1.1,3-2,4-.8.7-1.6,1.5-2.4,2.2-.9.9-1.3,1.6-1.3,2.1s.2.7.5,1c.3.2.7.4,1.1.4,1.7,0,3.1-1.3,4.1-3.8.9-2,1.3-4,1.3-6s0-1.2-.2-2.3c-.1-1.1-.3-1.6-.5-1.6Z"/>
  <path class="st0" d="M580.2,1014.8c-.2,0-.4,0-.6,0,0,.1.2.5.7,1,.3.4.7.9,1,1.4.3.5.7,1.3,1.2,2.2.2.8.4,1.7.6,2.6.2.9.7,1.4,1.3,1.5,1.2,0,1.8-.8,1.8-2.3s-.6-2.9-1.9-4.2-2.7-2.1-4.1-2.3Z"/>
  <path class="st0" d="M594.3,1032.6l-.7-.2h-.2c.8,1.1,1.3,1.8,1.7,2.3.4.5,1,1.3,2,2.5.5.7,1.1,1.9,1.7,3.4.9,2.4,1.6,3.6,2.2,3.6s1-.2,1.3-.7c.3-.5.5-.9.5-1.5,0-1.9-1-3.8-3-5.8-1.6-1.6-3.4-2.8-5.4-3.8Z"/>
  <path class="st0" d="M591.7,1048.8v-7c0-.3,0-.7,0-1,0-.4,0-.6-.2-.6,0,0,0,0,0,0,0,0-.2.3-.3.6-.8,2.9-1.3,5.8-1.6,8.7-.7,1.5-3.5,2.2-8.4,2.2h-1.6c-1.1,0-1.8-.1-2.1-.4-.5-.4-.7-1.1-.7-2.3v-21.8c.3-.2.7-.5,1-.7.3-.2.5-.5.5-.7,0-.4-.6-.8-1.7-1.2s-1.9-.7-2.4-.7l.4,4.3v21.8c0,1.2.3,2.2,1,2.8.6.6,2,1,4.1,1h1.1c4.2,0,7.5-.4,9.8-1.1,1.8-.6,2.7-1.3,2.7-2.2s-.1-.5-.4-.8c-.3-.3-.6-.6-1-1Z"/>
  <path class="st0" d="M641.3,1029.7c-.4.8-1,2-1.7,3.6-1.1,2.5-2.1,5.3-2.9,8.5-.2.6-.3,1.3-.5,2.1-.2,0-.4-.7-.6-2.2-.2-1.5-.3-2.5-.3-3,0-2.4.4-5,1.3-7.9.7-2.2,1.4-4.1,2.2-5.5.1-.2.2-.5.2-.7,0-.9-.6-1.8-1.8-2.9-1.2-1.1-2.2-1.6-3.1-1.6s-.2,0-.5.1c-.2,0-.4.2-.4.3.6.8,1.2,1.5,1.8,2.3.5.7.7,1.3.7,1.9v.3c-.6,2.2-1.2,4.4-1.8,6.6-.7,2.8-1,5.4-1,7.8s.3,4.5.9,7.1c.8,3.6,2,5.4,3.4,5.4s.9-.1,1.4-.4c.4-.3.6-.6.6-1s0-.7-.2-1.6-.2-1.6-.2-2.1v-1.5c0-2,.5-4.8,1.6-8.1.9-3,2-6.2,3.3-9.6,0,0-.1-.1-.3-.2-.5,0-1.1.8-2,2.3Z"/>
  <path class="st0" d="M652.2,1026.4c-.9.7-1.6,1.3-2.1,1.9-.7.7-1.1,1.4-1.1,1.9s.1.5.4.5,1.1-.5,2.4-1.4c3-2.2,5.1-3.5,6.5-3.9,2.3-.4,4.5-.8,6.8-1.2.3,0,.5-.3.5-.6,0-.5-.4-1.1-1.1-1.7s-1.4-.9-2.1-.9-2,.3-4.4.9c-2.4.6-4.2.9-5.5.9s-1.5,0-2.5-.1c-2-.2-3.1-.3-3.4-.3-.5,0-.8.1-.8.3,0,.5,1.1,1,3.3,1.5,2.2.5,3.8.7,4.9.7h.4c-.1,0-.2.2-.3.2-.5.2-1.1.7-1.9,1.2Z"/>
  <path class="st0" d="M669,1044c-.6.2-1.1.4-1.7.6-.6.2-1.3.3-2.1.3s-1.9,0-3.4.2c-1.5.1-2.5.2-3.3.2-1.4,0-2.8-.1-4.3-.3-1.5-.2-2.9-.6-4.2-1.2-1.3-.5-2.3-1.8-3-3.7-.7-1.9-1.1-2.9-1.3-2.9s-.5.2-.6.5c-.2.3-.2.8-.2,1.3,0,2.5,1,4.4,2.9,5.9,1.5,1.1,3.6,1.9,6.4,2.4,1.9.3,4.1.5,6.8.5s2.9-.1,6.4-.3c1.5,0,2.8-.1,4-.1s.5-.1.5-.4c0-.5-.4-1.1-1.1-1.8-.7-.7-1.4-1-1.9-1Z"/>
  <path class="st0" d="M724.8,1036.4c.3.4.6.7.8.9.2.2.5.3.7.3s.5,0,.7-.3c.2-.2.2-.4.2-.7,0-.8-.4-1.4-1.2-1.8-.8-.4-1.6-.5-2.5-.5s-.3,0-.6.1c0,0,.2.3.7.7.5.4.9.8,1.2,1.1Z"/>
  <path class="st0" d="M711.8,1036.3c.4-.3.7-.6,1-1,.4-.6.7-1.1.9-1.7,0-.2.1-.4.2-.7h24.7c0,.4,0,.9-.3,1.4-.2.5-.4,1.1-.6,1.7v.2c.3,0,.6-.2,1.2-.6.9-.7,1.6-1.1,1.9-1.4,0,0,.5-.2,1.2-.3.7-.1,1.1-.3,1.1-.5s-.5-.8-1.6-1.6c-1.1-.8-1.7-1.2-1.9-1.2l-1,1.4h-4v-8.7c0-.2.2-.6.7-1.1.5-.5.7-.8.7-1s-.4-.6-1.2-1.1c-.5-.3-1-.6-1.5-.8l-1.1,1.2h-7l1-1.6c.3-.4.6-1,.9-1.7,0-.2.2-.5.4-.8h11.7c.6,0,1.2,0,1.8-.1.6,0,.9-.3.9-.6s-.4-.5-1.1-1c-1.4-.9-2.2-1.4-2.6-1.4l-1.9,2.2h-21c0,0-.5,0-1.2,0-.7,0-1.3,0-1.8-.1,0,.2.2.5.5.8.4.4.6.6.9.6h.5c.5-.2,1.2-.2,2.2-.3,1,0,2,0,3,0h4.3v2.2s0,2,0,2h-4.3c-.2-.2-.6-.4-1.2-.6s-1.1-.3-1.3-.3c.2.7.4,1.5.5,2.2s.1,1.6.1,2.7v7.5h-3.4c0-.3,0-.7,0-1,0-.4,0-.6-.2-.9l-.2-.4c-.3.6-.5,1.2-.8,1.8-.3.7-.7,1.2-1.2,1.7-.5.3-.9.7-1.4,1-.6.4-.8.9-.8,1.3s.1.7.4.9.5.4.9.4.8-.1,1.2-.4ZM719.7,1021.5h12.5v3.2h-12.5v-3.2ZM719.7,1025.7h12.5v2.5h-12.5v-2.5ZM719.7,1029.2h12.5v2.7h-12.5v-2.7Z"/>
  <path class="st0" d="M742.5,1052.4h-2.3c-.9,0-2,0-3.2-.1-1.2,0-2.2-.2-2.9-.3-1.7-.3-3.3-.7-4.7-1.3-.4-.2-.9-.4-1.4-.7.2-.1.3-.2.4-.3.6-.6,1.1-1.1,1.5-1.5l1.7-1.9c0,0,.4-.2,1-.3s.9-.3.9-.5-.3-.5-1-1c-1.1-.8-1.9-1.2-2.4-1.2l-1,1.1h-7.4l.3-.3c.2,0,.5-.2.7-.3s.4-.2.4-.4-.4-.5-1.3-.8c-.9-.3-1.4-.5-1.7-.5-.5,1.6-1.6,3.1-3.3,4.6-1.2,1.1-2.7,2.2-4.7,3.4-.1,0-.3.2-.4.4h.1c.7,0,2.3-.7,4.8-2.2,2.6-1.5,3.9-2.5,3.9-2.9h.7c.2.3.3.5.4.7.3.4.6.9,1,1.4.4.5.9,1,1.4,1.6.2.2.4.4.7.7,0,.6-2,1.8-6.1,3.6-3.9,1.7-6.5,2.7-7.9,3-.2,0-.3.1-.5.2,0,0,0,0-.2.1,0,0,.1,0,.2,0,.2,0,.5,0,.9,0,1.5-.2,2.5-.4,3-.6,1.6-.4,3.4-.9,5.6-1.7,1.1-.4,2.3-.9,3.6-1.6s2.4-1.2,3.3-1.8c.8.5,1.7,1.1,2.6,1.6s1.8,1,2.6,1.2c2,.7,3.5,1.2,4.8,1.6,1.2.3,2.1.5,2.6.5,0,0,.3-.2.7-.7.4-.4.7-.7.9-.9.5-.4,1-.7,1.6-1,1-.5,1.4-.8,1.4-.9-.2,0-.3-.1-.6-.1-.2,0-.5,0-.8,0ZM726.4,1048.5c-.1.1-.3.3-.6.5-.2-.1-.4-.2-.5-.3-.7-.5-1.3-1-1.8-1.5l-1.3-1.6h6.8c0,.1-.2.2-.2.3-.5.6-.9,1.2-1.4,1.6-.2.2-.6.6-1.1,1Z"/>
  <path class="st0" d="M714.7,1035.2c0,0-.2.4-.5,1.3-.3.9-.6,1.6-1,2-.2.2-.6.6-1.1,1.1-.7.7-1.1,1.2-1.1,1.6,0,.7.3,1,1,1,1,0,1.8-.7,2.4-2,.4-1,.7-2.1.7-3.2s0-.5,0-1.1c0-.5-.2-.8-.3-.8Z"/>
  <path class="st0" d="M719.1,1041.3c.7.3,1.8.5,3.3.5h3c1.1,0,2.2,0,3.3-.2,2.5-.3,3.7-.9,3.7-1.9s-.2-.6-.5-.8c-.3-.3-.5-.4-.5-.4-.2-.5-.3-1.1-.3-1.6,0-.5,0-1-.1-1.4,0-.4,0-.7-.2-.9,0,0,0,0,0-.1,0,.2,0,.3,0,.3-.2.4-.3,1-.6,1.8-.4,1.6-.8,2.5-1.2,2.8-.6.4-2.3.7-4.9.7s-2.9,0-3.4-.2c-.5-.1-.7-.5-.7-1.1v-2.1c0,0,.1-.2.4-.4.3-.2.4-.4.4-.5,0-.2-.4-.5-1.2-.7-.8-.2-1.4-.4-1.8-.4v1.5c.1,0,.1,3.1.1,3.1,0,1.1.5,1.8,1.5,2.3Z"/>
  <path class="st0" d="M737.9,1038.4c-1.4-1.1-2.6-1.7-3.4-1.7h-.1c0,0,.2.3.5.7.8,1.1,1.4,1.9,1.8,2.6.6,1.1.9,1.6,1,1.8.4.6.8.8,1.2.8s.6-.1.8-.3.3-.5.3-.8c0-.9-.7-1.9-2.2-3Z"/>
  <path class="st0" d="M709.3,1017.4c0,0,.5-.4,1.3-.8.3-.2.5-.3.5-.5,0-.3-.6-.7-1.7-1.4-1.1-.7-1.9-1-2.2-1,0,1.9-.8,4.7-2.4,8.4-1.2,2.7-2.7,5.6-4.4,8.7-.8,1.4-1.6,2.7-2.4,4.1h0c.5,0,1.7-1.1,3.5-3.4,1.8-2.3,2.7-3.7,2.7-4l-.3,23.9c0,1.7,0,3.2-.2,4.6,0,.2,0,.5,0,.7,0,0,.2.1.2.1.2,0,.3,0,.6,0,.7,0,1.2-.2,1.7-.5.4-.3.7-.8.7-1.4s0-.6-.1-1c-.2-1-.3-1.6-.3-1.9v-24.3c0-.1.2-.3.5-.6.6-.5.9-.8.9-1s-.3-.5-.9-.7c-.6-.3-1-.4-1.2-.4.7-1.6,1.3-2.8,1.7-3.6,1.2-2.7,1.9-4.1,1.9-4.1Z"/>
  <path class="st0" d="M808.4,1044.8c-2.1,1.3-4.3,2.5-6.4,3.8-2.6,1.4-5.3,2.4-8.1,3-.7.2-1.2.2-1.6.3-.4,0-.9,0-1.6,0-1.9,0-3.3-.4-4.4-1.2-1.2-.9-1.8-2.3-1.8-4.1s.2-6.4.6-13.8c.2-3.1.2-5.8.2-8.2s.1-.9.3-1.6c.2-.7.3-1.2.3-1.5,0-1.1-.8-1.8-2.4-2.3-1.1-.3-2.3-.5-3.7-.5h-.2c-.1,0-.4,0-.9.1-.5,0-.7.3-.7.6,0,.6.4.9,1.3,1.2,1.7.5,2.6,1.4,2.6,2.9s0,2.8-.3,6.1c-.3,4.8-.4,7.6-.4,8.1-.1,3-.2,5.5-.2,7.6v2.3c0,2.1,1.1,3.8,3.2,5.1,2.1,1.3,4.6,2,7.4,2s1.1,0,1.7,0c.6,0,1.1-.2,1.6-.3,2.2-.5,5.1-1.8,8.7-4,3.6-2.1,5.4-3.7,5.4-4.7v-.2c-.1-.3-.3-.4-.6-.4Z"/>
  <path class="st0" d="M857.7,1039.3h-.3c-.7,0-1.8,1-3.4,3.1-.5.7-1.2,1.7-2.1,3.2-.6,0-1.3-1-2.3-2.9-.7-1.6-1.3-3.5-1.7-5.9-.2-1.1-.3-2.2-.3-3.5s0-2.4.2-4.1.2-2.8.2-3.2,0-.7,0-.9c0-.1,0-.2,0-.3-.7-1.2-1.5-2.2-2.3-3-1-1.1-1.7-1.6-2.3-1.6s-.5.1-.7.3c-.2.2-.3.5-.3.8s.1.8.4,1.4c.5,1.4.8,2.3.9,2.9,0,.6.1,1.1.1,1.7,0,.6,0,1.2,0,1.7v3.4c0,4.1.7,7.6,2.1,10.6,1.6,3.4,4.2,6,7.5,7.6h.6c.5.1.9,0,1.3-.5s.6-.8.6-1.3-.1-.4-.3-.7-.3-.5-.3-.8c0-.6.3-1.5.9-2.7,1.3-2.5,1.9-3.9,1.9-4.4s-.2-.7-.5-.9Z"/>
  <path class="st0" d="M877.1,1032.5c-2.1-2-3.6-3.1-4.7-3.1s-.7.2-.7.7.4,1.1,1.3,2.1c1.1,1.3,1.7,2.2,1.9,2.6.2.4.7,1.8,1.6,4.3.5,1.6,1.1,2.4,1.7,2.4s1.4-.3,1.9-.9c.5-.6.7-1.3.7-2.1v-.8c-.4-1.4-1.6-3.1-3.7-5.2Z"/>
  <path class="st0" d="M950.8,1025.7c-1.1-.9-1.7-1.4-1.9-1.4l-2,2.5h-6.7v-8c0,0,.2-.3.6-.6.4-.4.6-.6.6-.9,0-.4-.5-.7-1.6-1-1.1-.3-1.9-.4-2.5-.4.1.4.2.9.3,1.4,0,.5.1,1.1.1,1.7v7.8h-14.2v-8.2c0,0,.2-.2.7-.6.5-.3.7-.6.7-.8,0-.3-.6-.6-1.8-1-1.2-.3-2.1-.5-2.6-.5l.5,3.5v7.5h-9.2c-.1,0-.8,0-2-.2-.2,0-.5,0-.7,0l.9,1.7c.3,0,.6,0,.9-.2.4,0,.8-.1,1.4-.1h8.6v15.1c0,.4,0,1.9-.1,4.6,0,2.6-.1,4.8-.1,6.5s.3,1.3.8,1.3c.8,0,1.3-.2,1.6-.5.2-.4.4-1,.4-1.8v-1.6h14.2v2.7c0,.4,0,.7.2.8.2.2.5.3,1,.3.6-.2,1-.4,1.2-.7.2-.3.3-.8.3-1.5v-1.5c0-2.8,0-7.4,0-13.9,0-6.4,0-9.7-.1-9.8h11.6c.3,0,.5-.2.5-.4s-.5-.8-1.6-1.8ZM937.8,1050.2h-14.2v-11.1h14.2v11.1ZM937.8,1038h-14.2v-10.1h14.2v10.1Z"/>
  <path class="st0" d="M1022.5,1048.9c-3.3-1.2-6.4-3.3-9.4-6.2-2.9-3-5.1-6.1-6.4-9.5h11.9c.6,0,.9-.1.9-.3s-.4-.8-1.3-1.5c-.7-.6-1.2-1.1-1.6-1.4l-1.7,2.1h-9.1v-7.8h11.3c.5,0,.8-.1.8-.3,0-.3-.5-.9-1.4-1.7-.6-.5-1.2-1-1.8-1.5l-2,2.5h-6.9v-5.7c0-.2.2-.4.7-.7.4-.3.7-.5.7-.7,0-.3-.6-.6-1.7-.9-1.1-.3-1.9-.5-2.4-.5.1.6.2,1.1.3,1.8,0,.6.1,1.3.1,2v4.8h-6.8c-.3,0-.7,0-1.4-.1-.7,0-1-.1-1-.1l.7,1.7c.5,0,.9-.1,1.4-.2.5,0,.9-.1,1.2-.1h6v7.8h-8.8c0,0-.5,0-1.2-.1s-1.1-.1-1.2-.1l.7,1.7c.5,0,.9-.1,1.4-.2.5,0,.9-.1,1.2-.1h6.7c-.4,1-.8,1.8-1.2,2.6-1.1,2.2-2.5,4.4-4.2,6.5-1.5,2-3.3,3.8-5.3,5.5-1.6,1.4-3.3,2.7-5.4,3.9,0,0-.2.2-.3.3,0,0,0,0,0,.1h.1c.9.1,2.8-1,5.9-3.2,2.6-1.9,4.4-3.4,5.3-4.3,1.5-1.6,3.1-3.5,4.6-5.7.5-.7,1.1-1.6,1.8-2.7v15.3l-.3,2.7c0,.4,0,.7.2.8.1,0,.5.1,1.2.1.6,0,1-.2,1.2-.4.2-.2.3-.5.3-.9l-.2-1.7v-19c.4,1.1.7,1.9.9,2.6.8,2,1.7,3.8,2.7,5.4.8,1.3,2.3,3.2,4.4,5.7,2.7,3.2,4.4,4.7,5.1,4.7s.4,0,.6-.2c.2-.1.6-.4,1-.7.3-.2,1-.5,2.2-.9.3-.1.5-.2.5-.3,0,0-.2-.2-.2-.2-.2-.2-.5-.3-.7-.3Z"/>
  <path class="st0" d="M982.8,1040.4h5.9v2c0,.5.2.8.6.8s.6,0,1-.1c.6-.2.9-.5.9-1.1v-1.8l-.2-16.2c0-.1.3-.3.8-.5.5-.2.8-.5.8-.7s-.5-.7-1.4-1.4c-.3-.2-.8-.6-1.4-1l-1.5,1.4h-5.4c-.3-.3-.6-.5-1-.7-.4-.2-.9-.4-1.7-.7,0,.5.1,1,.2,1.5,0,.5,0,1.1,0,1.6v20.2l-.2,3.5c0,.6.2.9.6.9.6,0,1.1-.1,1.6-.3.5-.2.7-.6.7-1l-.3-1.1v-5.1ZM982.8,1022.8h5.9v16.6h-5.9v-16.6Z"/>
  <path class="st0" d="M1086.6,1028.3c-1.5-.6-2.7-.9-3.6-.9s-.3,0-.5.2c0,.2.4.4,1.1.8.7.4,1.1.7,1.1,1,0,.2-.1.2-.2.3-1.4,1.1-3.8,2.8-7.4,5-1.2.8-2.9,1.8-5.1,3.2-.7-1.4-1.3-2.7-2-4.1-1.1-1.1-2.6-1.7-4.5-1.7s-4,.6-5.8,1.9c0-.2.7-1.4,2-3.9.4-.8,1.1-1.9,2-3.5,1.4-.3,2.7-.5,3.8-.6,1.1-.1,1.8-.2,2.1-.2.6-.1,1-.3,1.4-.7.3-.3.5-.6.5-.9,0-.7-.3-1-1-1s-1.1.1-1.9.4c-1.7.6-2.8.8-3.3.8,0-.4.6-1.5,1.8-3.2,1.2-1.7,1.8-2.8,1.8-3.1,0-.7-.5-1.1-1.5-1.5-1-.3-2-.5-3-.5s-1.3.1-1.3.3.4.3,1.1.6c.7.2,1.1.6,1.1,1.2,0,.9-.5,2.3-1.5,4.2-.3.6-.8,1.5-1.5,2.5-.7.2-1.2.2-1.7.3-1.2.2-2.4.2-3.4.2s-2.2-.3-3.3-.9c-1.1-.6-2.3-1.3-3.5-2,0,0-.1,0-.1,0,0,0-.1.1-.1.2,0,.5.5,1.3,1.6,2.3,1.1,1,2,1.6,2.7,1.6s.3,0,.6,0c.2,0,.5,0,.7,0h5.7c0,.2-.9,1.7-2.6,4.5-1.9,3.1-3.6,5.6-5.1,7.5-.3.4-.5.8-.5,1.1s.1.6.4.8c.3.2.6.3,1,.3.7,0,1.3-.3,1.6-1,1.1-1.9,2.5-3.5,4.4-4.8,1.9-1.3,3.6-2,5.2-2s2.5.7,3.2,2.1c.4.9.6,2.3.6,4.1-.9.6-1.9,1.1-2.8,1.6-2.2,1.3-3.9,2.5-5.2,3.7-1.9,1.7-2.8,3.2-2.8,4.6s1.4,3,4.1,3.8c1.8.5,4,.8,6.4.8s1.5,0,3.8,0c2.4,0,4,0,4.9,0h2.4c1.6,0,2.4-.4,2.4-1.1s-.3-.7-.9-1c-.6-.3-1.4-.4-2.5-.4s-2.6.1-4.7.4c-2.1.2-3.7.4-4.7.4h-.2c-2.2,0-4-.1-5.4-.4-2.4-.4-3.5-1.2-3.5-2.4s1.2-2.6,3.7-4.7c2.5-2.1,4.1-3.1,5-3.1l.2,5.4c0,.5.3.8.9.8s.8-.1,1.1-.4c.4-.3.5-.6.5-1,0-.8,0-1.9,0-3.1,0-1.2-.1-2.4-.2-3.5.1-.4,1.5-1.3,4.1-2.7,7.7-4.3,11.8-6.5,12.2-6.8,0,0,.2-.2.3-.4,0-.5-.8-1.1-2.3-1.7Z"/>
  <path class="st0" d="M1160.3,1041.6c-1-.7-1.7-1.1-2-1.1l-2.1,2.2h-12.1v-9.3h14.1c.1,0,.4,0,1,0,.5,0,.8-.2.8-.4,0-.3-.5-.9-1.6-1.6-1.1-.8-1.7-1.2-1.9-1.2l-2,2.2h-10.3v-8.3h14.1c.9,0,1.6,0,2.1-.1.5,0,.7-.2.7-.5,0-.4-.5-.8-1.6-1.3-.8-.3-1.5-.6-2.1-.7l-2.1,1.6h-16.1c.1-.2.3-.5.3-.6.3-.6.6-1.1.9-1.6l1.6-3.4c0,0,.4-.3.9-.6.5-.3.8-.6.8-.7s-.6-.6-1.9-1.1c-1.3-.5-2.1-.7-2.5-.7,0,2.4-.9,5.6-2.8,9.7-1.4,3-3.1,6.1-5.1,9.2-1.7,2.7-2.7,4.1-2.7,4.1h0c.8,0,2.7-1.9,5.5-5.8,2.8-3.9,4.2-6.4,4.2-7.5h3.4v28.8l-.3,4.2c0,.2,0,.3,0,.3.1.4.4.7.9.7s1.2-.2,1.6-.5c.4-.4.6-.8.6-1.5l-.3-2.5c-.1-1-.2-2.2-.2-3.5,0-1.3,0-2.6,0-3.9v-2.4h15.5c.6,0,1.1,0,1.5-.1s.7-.2.7-.5-.5-.8-1.5-1.5Z"/>
  <path class="st0" d="M1127.2,1026c-.2,0-.6-.2-1.3-.4.1-.3.7-1.3,1.7-3,1.5-2.7,2.4-4.4,2.6-5,0-.1.4-.4,1-.8s.9-.7.9-1-.7-.7-2-1.2-2.2-.8-2.5-.8c0,2.2-.9,5.4-2.8,9.6-1.2,2.7-3,6.1-5.3,10.1-1.9,3.3-2.8,4.9-2.8,4.9h0c.5,0,1.5-.9,2.9-2.9,1.3-1.8,2.9-4.3,4.9-7.3,0,1.7-.1,3.4-.1,5-.1,6-.2,10.1-.3,12.2,0,2.1,0,4.6,0,7.4s0,1.2-.2,2.2-.2,1.6-.2,1.6c0,.2.1.3.2.3.2.2.6.3,1.1.3.7-.1,1.2-.3,1.5-.7.3-.3.4-.9.4-1.6v-1.8c-.2-.9-.3-3.4-.3-7.4,0-2.9,0-5.9.1-8.9s0-5.9.2-8.6c0-.1.2-.4.6-.7.4-.4.6-.6.6-.9s-.3-.6-1-.8Z"/>
  <path class="st0" d="M1212.9,1026.9c-2.5,0-5.2.6-8.1,1.9-1.9.8-3.9,2-6.2,3.5-1.9,1.3-3,1.9-3.2,1.9-.5,0-1.2-.5-2-1.4-.8-1-1.3-1.4-1.5-1.4s-.3.1-.3.4c0,.8.5,1.9,1.4,3.3.9,1.4,1.8,2.1,2.8,2.1,2.8-2,5.7-3.9,8.5-5.9,2.9-1.8,5.7-2.7,8.6-2.7s4.9.7,6.5,2.2c1.5,1.3,2.2,3,2.2,5.1s-1.1,4.8-3.3,6.8c-1.2,1.1-3,2-5.4,2.8-4,1.3-6,2.1-6,2.5s.4.6,1.2.6c1.5,0,3.6-.5,6.3-1.4,2.8-.9,4.7-1.9,5.8-2.8,1.3-1.1,2.3-2.3,2.9-3.7.7-1.3,1-2.6,1-4,0-2.7-1.1-5-3.2-6.9-2.1-2-4.8-2.9-8-2.9Z"/>
  <path class="st0" d="M1294.3,1020c-1-.6-1.8-.9-2.2-.9s-.9.1-1.4.4c-1.5.7-2.3,1.1-2.6,1.2-2.5.7-5,1.3-7.5,2-4.7,1.2-8.3,2.1-10.8,2.7-3.8.9-6,1.4-6.5,1.4s-.8-.2-1.3-.6c-1-.8-1.6-1.2-1.8-1.2-.5,0-.7.3-.7.9,0,.9.4,1.9,1.1,2.8.7.9,1.5,1.4,2.4,1.4s.7,0,1.1-.2,1-.4,1.9-.8c3.1-1,5.4-1.8,7.1-2.3,4.3-1.3,6.7-2,7-2-2,2.9-3.3,4.9-3.7,5.8-1.5,2.9-2.2,6-2.2,9.3s1.6,7.3,4.7,9.7c2.9,2.2,6.4,3.3,10.5,3.3h.2c1.4,0,2.4-.1,3.1-.3.7-.2,1-.5,1-.9s-.4-1-1.2-1.6c-.8-.6-1.5-.9-2-.9s-.7,0-1.6.1-1.6.1-2.1.1c-3.5,0-6.1-.8-7.9-2.5-1.8-1.6-2.7-4.2-2.7-7.7s1.4-7.3,4.3-10.9c3-3.8,6.3-5.7,9.9-5.7h2.4c.8,0,1.5,0,2-.2.5-.2.8-.5,1-.9,0-.4-.5-.9-1.6-1.5Z"/>
  <path class="st0" d="M1345.1,1039.3h-.3c-.7,0-1.8,1-3.4,3.1-.5.7-1.2,1.7-2.1,3.2-.6,0-1.4-1-2.3-2.9-.7-1.6-1.3-3.5-1.7-5.9-.2-1.1-.3-2.2-.3-3.5s0-2.4.2-4.1c.1-1.7.2-2.8.2-3.2s0-.7,0-.9c0-.1,0-.2,0-.3-.7-1.2-1.5-2.2-2.3-3-1-1.1-1.7-1.6-2.3-1.6s-.5.1-.7.3c-.2.2-.3.5-.3.8s.1.8.4,1.4c.5,1.4.8,2.3.9,2.9,0,.6.1,1.1.1,1.7,0,.6,0,1.2,0,1.7v3.4c0,4.1.7,7.6,2.1,10.6,1.6,3.4,4.2,6,7.5,7.6h.6c.5.1.9,0,1.3-.5s.6-.8.6-1.3-.1-.4-.3-.7c-.2-.2-.3-.5-.3-.8,0-.6.3-1.5.9-2.7,1.3-2.5,1.9-3.9,1.9-4.4s-.2-.7-.5-.9Z"/>
  <path class="st0" d="M1364.5,1032.5c-2.1-2-3.6-3.1-4.7-3.1s-.7.2-.7.7.4,1.1,1.3,2.1c1.1,1.3,1.7,2.2,1.9,2.6.2.4.7,1.8,1.6,4.3.5,1.6,1.1,2.4,1.7,2.4s1.4-.3,1.9-.9c.5-.6.7-1.3.7-2.1v-.8c-.4-1.4-1.6-3.1-3.7-5.2Z"/>
  <path class="st0" d="M1430.6,1023.5c-.6-.5-1.1-.7-1.6-.7s-.3,0-.4.1c-1.1.9-2.6,1.7-4.5,2.4-1.5.5-3,.9-4.4,1.1v-.4c0-.2,0-.7,0-1.4,0-.7.1-1.4.2-2,0-.6.2-1.2.3-1.7.2-.5.2-.9.2-1.2,0-.9-.5-1.6-1.5-2-.7-.3-1.6-.5-2.7-.5s-1.6.1-2.2.3c-.6.2-.9.5-.9.8s.7.7,2.2.9c.7,0,1.2.3,1.4.7s.3.8.3,1.3c0,.5,0,1.2,0,2.2v3.1c0,.2-1,.3-2.9.5-2,.2-4,.3-6,.3s-.9,0-1.4,0-.8,0-1.2,0c-.4,0-.9-.2-1.7-.4-.7-.2-1.3-.3-1.5-.3-.6,0-.8.3-.8.8s.6,1.2,1.8,1.7c.9.3,1.8.5,2.7.5s.9,0,2.3,0,2.2,0,2.6,0,.5,0,.7,0c0,0,.1,0,.2,0h0c0,.2-.2.3-.4.4-.9.4-1.7,1.2-2.5,2.2-1,1.2-1.4,2.4-1.4,3.4s.4,1.9,1.3,2.4c.6.3,1.6.5,2.9.5s1.4,0,2.2-.1c1.7-.2,2.6-.3,2.8-.3.4,0,.6.5.6,1.4v1.9c0,.3,0,1.2,0,2.5s0,2.2,0,2.6c-.8-.1-1.5-.2-2.1-.3s-1.4,0-2.2,0c-1.8,0-3.4.2-4.7.7-1.8.7-2.7,1.8-2.7,3.3s.8,2.3,2.5,3.2c1.6.9,3.4,1.3,5.4,1.3s3.5-.3,4.6-1c1.4-.8,2.2-2.2,2.2-4,.9,0,2.5.7,5,2.1,2.5,1.4,3.8,2.1,4,2.1.6,0,.8-.4.8-1.3s-.1-1-.4-1.5-.6-.8-1-1c-1.3-.5-2.5-1-3.8-1.4-1.3-.4-2.8-1-4.7-1.7-.1,0-.2-.9-.3-2.6,0-1.7-.1-3.5-.1-5.2v-1.5c1.3,0,3-.2,5.2-.7,2.9-.6,4.3-1.4,4.3-2.4s-.6-1.4-1.9-1.7c-.7-.1-1.6-.2-2.7-.3-.5,0-1.5-.5-3.2-1.1-.7-.2-1.1-.4-1.3-.4l-.3.2c0,.3.6.8,1.8,1.5,1.2.7,1.8,1.2,1.8,1.4,0,.4-.5.7-1.4.9-.9.2-1.6.4-2.2.4h-.4v-6.5c1.7-.4,3.5-.9,5.3-1.3,2.3-.7,4.5-1.5,6.4-2.5,0,0,.2-.1.2-.3,0,0,0,0,0-.1,0-.4-.3-.8-.9-1.3ZM1416.2,1051.9c-.7.5-1.8.7-3.4.7s-2.4-.2-3.5-.7c-1.1-.5-1.6-1-1.6-1.6,0-.9.6-1.5,1.9-1.9.7-.2,1.7-.3,2.9-.3s2.2,0,3.3.3c1.1.2,1.7.3,1.7.4,0,1.5-.4,2.5-1.2,3.1ZM1417.4,1035.6c0,.2-.4.4-1.1.5-.7.1-1.6.2-2.6.2h-.9c-.5,0-1.1,0-1.8-.1s-1-.4-1-.8c0-.8.6-2,1.9-3.6,1.3-1.5,2.3-2.4,3.1-2.5h1.7c0-.1.5-.1.5-.1,0,.3.1.7.2,1.2,0,.4,0,1.5,0,3v2.3Z"/>
  <path class="st0" d="M1507.3,1025.9c-.5-.4-1.1-.6-1.9-.6s-1.2,0-1.9.2c-.7.1-1.1.2-1.3.2-1.5,0-3.6-.6-6.3-1.8-3-1.4-4.5-2.7-4.5-4s0-.4.2-.7c.2-.3.2-.6.2-.7,0-.9-.7-1.6-2.2-2-1.1-.4-2.1-.6-3.2-.6s-1.2,0-1.6.2-.7.4-.7.6c0,.5.5.9,1.5,1.2,1,.3,1.6.8,1.7,1.4,0,.6.2,1.6.3,2.9s.2,2.4.2,3.2,0,1.3-.2,1.4c-3.8.8-5.9,1.2-6.4,1.3-5.3,1-9,1.5-11.1,1.5s-1-.2-1.6-.6c-1.2-.7-2-1.1-2.3-1.1-.7,0-1,.2-1,.7,0,.8.6,1.7,1.8,2.7,1.2.9,2.2,1.4,3.1,1.4.8-.2,1.7-.4,2.6-.6,2.8-.6,5.8-1.2,9-1.8s5.3-.9,6.4-1c0,.4.1.8.1,1.3s0,1.4,0,2.9v1.6c-.8-.6-1.7-.8-2.5-.8-1.5,0-2.7.7-3.6,2.1-.7,1.2-1.1,2.6-1.1,4.1s.4,2.7,1.2,3.5c.8.8,1.8,1.2,3,1.2s.9-.1,1.7-.4c.2,0,.5-.2.9-.3,0,.2.2.3.2.4,0,.3.1.7.1,1.1,0,2.5-.9,4.7-2.6,6.5-1.6,1.7-3.5,3.1-5.6,4.2,0,.3.1.5.4.7.2.1.5.2.8.2,1.1,0,2.7-.7,4.6-2,2-1.3,3.3-2.6,4.1-3.8.9-1.4,1.5-2.7,1.8-3.8s.5-2.4.5-3.6,0-1.4-.2-2.4c-.3-1.9-.4-2.8-.4-2.8v-10.2c0-.1.7-.3,2.1-.4s2.9-.2,4.5-.2,2,0,3.2.1c1.2,0,2.2.2,2.9.4h1.2c.9.1,1.5,0,2-.4s.7-.8.7-1.4-.2-1-.7-1.3ZM1486.8,1041.2c-.5.8-1.1,1.2-1.8,1.2s-1-.2-1.2-.6c-.2-.4-.4-.9-.4-1.4,0-.9.2-1.8.7-2.6.5-.8,1-1.3,1.7-1.3h.5c.5.2.8.4,1,.8.2.4.3.9.3,1.4,0,.9-.3,1.7-.8,2.4ZM1493.4,1026.4c-.6,0-1.2,0-1.7,0h-.5v-3.8c.5.5.9.9,1.2,1.3.9.9,1.9,1.7,2.8,2.3-.6,0-1.2.1-1.8.2Z"/>
  <path class="st0" d="M1540.1,1045c-1.9,0-3.3.6-4.4,1.8-1,1.1-1.4,2.4-1.4,4.1s.5,3,1.6,4.1,2.5,1.7,4.3,1.7,3.3-.6,4.4-1.8c1-1.1,1.4-2.4,1.4-4s-.5-2.9-1.5-4.1c-1.1-1.2-2.5-1.8-4.4-1.8ZM1543,1053.6c-.7.8-1.6,1.2-2.9,1.2s-2.2-.4-2.8-1.2c-.7-.8-1-1.7-1-2.7s.3-2,1-2.7c.7-.8,1.6-1.2,2.8-1.2s2.2.4,2.9,1.2c.7.8,1,1.7,1,2.7s-.3,2-1,2.7Z"/>
</svg>