<?xml version="1.0" encoding="UTF-8"?>
<svg id="_レイヤー_1" data-name="レイヤー_1" xmlns="http://www.w3.org/2000/svg" version="1.1" viewBox="0 0 2000 2000">
  <!-- Generator: Adobe Illustrator 30.3.0, SVG Export Plug-In . SVG Version: 2.1.3 Build 182)  -->
  <defs>
    <style>
      .st0 {
        fill: none;
      }

      .st1 {
        fill: #653d23;
      }

      .st2 {
        stroke-width: 6px;
      }

      .st2, .st3 {
        fill: #f5f1eb;
        stroke: #f5f1eb;
        stroke-miterlimit: 10;
      }

      .st3 {
        stroke-width: 9px;
      }
    </style>
  </defs>
  <rect class="st1" width="2000" height="2000"/>
  <g>
    <rect class="st0" x="966.5" y="380.7" width="59.1" height="42.3"/>
    <rect class="st0" x="966.5" y="427.7" width="59.1" height="46.3"/>
    <path class="st0" d="M1019.7,1030.8c2.4-1,3.5-3,3.5-5.8,0-7.3-2.3-13.3-6.9-18.2-4.6-4.8-10.5-7.2-17.7-7.2s-12.8,3.1-17.8,9.5c-5,6.2-8.4,14.6-10.2,24.8l37.1-1.1c5.6,0,9.6-.7,12-1.8h-.1Z"/>
    <path class="st0" d="M968.2,1632.2c0,13.8,5.3,20.8,16,20.8s10.2-1.2,15.2-3.8c5-2.6,8.3-5.8,10.1-9.6l1.1-39.2c-28.3,6.5-42.5,17.1-42.5,31.9h0Z"/>
    <path class="st3" d="M914.3,381.2c1.6-.3,3.5-.5,5.8-.5h35.9v63.2c0,1.7-.2,8-.5,19-.3,11-.5,20-.5,27.1s1.1,5.2,3.3,5.2c3.3,0,5.6-.7,6.7-2.2,1-1.5,1.6-4,1.6-7.5v-6.7h59.1v11.4c0,1.6.3,2.7.9,3.5.6.7,2.1,1.1,4.3,1.1,2.6-.6,4.3-1.7,5-2.9.8-1.2,1.1-3.4,1.1-6.5v-6.2c0-11.7-.1-30.9-.3-57.9-.2-26.8-.3-40.5-.4-40.9h48.6c1.2-.2,2-.7,2-1.6s-2.2-3.5-6.7-7.5c-4.4-4-7-5.9-7.8-5.9l-8.1,10.3h-28v-33.4c0-.2.8-1.1,2.4-2.6,1.7-1.5,2.4-2.7,2.4-3.6,0-1.6-2.3-2.9-6.8-4.2-4.6-1.2-8-1.9-10.5-1.9.5,1.8.9,3.7,1.2,5.8.3,2.1.5,4.5.5,7.2v32.7h-59.1v-34.4c0-.2.9-1,2.9-2.3,2-1.2,2.9-2.4,2.9-3.3s-2.6-2.7-7.7-4.1c-5.1-1.5-8.7-2.2-10.8-2.2l2.2,14.8v31.5h-38.2c-.5,0-3.2-.3-8.2-.9-1-.1-2-.2-2.9-.2l3.7,7c1-.1,2.4-.3,4-.7v.2ZM966.5,380.7h59.1v42.3h-59.1v-42.3h0ZM966.5,427.7h59.1v46.3h-59.1v-46.3h0Z"/>
    <g>
      <rect class="st0" x="923.2" y="652.4" width="24.5" height="69.4"/>
      <path class="st3" d="M947.7,726.1v8.3c0,2.2.8,3.3,2.6,3.3s2.7-.2,4.1-.6c2.6-.7,3.8-2.3,3.8-4.5v-7.4l-.7-67.8c0-.5,1-1.2,3.2-2.2,2.2-.9,3.2-1.9,3.2-2.8s-2-2.9-6-6c-1.2-.9-3.2-2.3-5.8-4.3l-6.2,5.8h-22.5c-1.1-1.1-2.5-2.2-4.1-2.9s-3.8-1.8-7.1-2.9c.2,2,.5,4.1.7,6.2s.4,4.4.4,6.7v84.4l-.7,14.6c0,2.5.8,3.6,2.4,3.6,2.4,0,4.6-.4,6.6-1.4,2-.9,2.9-2.3,2.9-4.3l-1.1-4.7v-21.2h24.5-.1ZM923.2,652.4h24.5v69.4h-24.5v-69.4Z"/>
      <path class="st3" d="M1022.9,696h49.7c2.5,0,3.6-.4,3.6-1.4s-1.8-3.2-5.2-6.5c-2.7-2.6-4.9-4.5-6.7-5.6l-7,8.7h-37.9v-32.7h47.2c2.2,0,3.3-.4,3.3-1.4s-1.9-3.6-5.6-7.2c-2.6-2.1-5.1-4.2-7.6-6.5l-8.5,10.5h-28.7v-23.9c0-.6.9-1.7,2.8-2.9,1.9-1.2,2.8-2.3,2.8-2.9,0-1.2-2.4-2.6-7.1-3.8-4.7-1.2-8.1-2-10.2-2,.5,2.3.9,4.8,1.2,7.4s.5,5.3.5,8.1v20h-28.4c-1.1,0-3.1-.2-5.8-.6s-4.2-.6-4.3-.6l2.7,7c2-.2,3.8-.5,5.8-.8,2-.3,3.6-.5,5.1-.5h24.9v32.7h-36.9c-.4,0-2.1-.2-5-.5s-4.7-.5-5.2-.5l2.7,7c2-.2,3.8-.5,5.8-.8,2-.3,3.6-.5,5.1-.5h27.8c-1.8,4.2-3.4,7.7-4.9,10.7-4.8,9.4-10.6,18.4-17.5,27.3-6.3,8.3-13.6,16-22,23.1-6.5,5.7-13.9,11.1-22.4,16.3-.4.3-.8.7-1.4,1.4-.1.1-.3.3-.4.6l.6.6c3.6,0,11.9-4.7,24.7-13.9,11-8,18.4-13.9,22.3-17.9,6.5-6.8,12.9-14.7,19.1-23.7,2.1-3,4.5-6.8,7.4-11.4v64l-1.1,11.4c0,1.8.2,2.9.7,3.3s2.2.6,5.1.6c2.5-.4,4.2-1,5-1.9s1.2-2.1,1.2-3.6l-.9-7.2v-79.5c1.6,4.4,2.8,8,3.8,10.9,3.3,8.4,7.1,15.9,11.2,22.4,3.5,5.3,9.7,13.2,18.4,23.7,11.1,13.2,18.3,19.9,21.3,19.9s1.7-.3,2.5-.8c.9-.6,2.3-1.6,4.3-3,1.1-.6,4.2-1.9,9.2-3.6,1.5-.5,2.2-.9,2.2-1.4-.4-.4-.7-.6-.9-.7-.9-.6-1.9-1.1-2.9-1.4-13.8-4.9-26.9-13.5-39.1-25.9-12.3-12.4-21.1-25.6-26.7-39.7v-.2Z"/>
    </g>
    <path class="st2" d="M1042.7,1041.9c3.2,0,4.8-1.4,4.8-4.1,0-12-4.7-22.9-14-32.8s-21-14.8-34.8-14.8-30.1,6.7-40.8,19.9c-10.7,13.2-16.1,29.4-16.1,48.5s5.5,34.4,16.4,47.3c10.9,12.8,24.5,19.2,40.5,19.2s14.3-1.7,20.9-5.1c6.7-3.4,12.9-8.3,18.5-14.8,5.7-6.5,8.5-10.7,8.5-12.8s-.4-2.7-1.1-3.7-1.6-1.6-2.3-1.6l-.6.3c-4,5.7-9.1,10.5-15.5,14.2-6.5,3.7-12.8,5.5-19,5.5-12.6,0-22.3-4.2-29-12.6-6.8-8.4-10.2-20.5-10.2-36.1s.3-11.1.8-16.3h73.1v-.3ZM980.9,1009c5-6.2,10.9-9.5,17.8-9.5s13.1,2.4,17.7,7.2c4.6,4.8,6.9,10.9,6.9,18.2s-1.1,4.8-3.5,5.8c-2.4,1-6.3,1.7-12,1.8l-37.1,1.1c1.8-10.2,5.2-18.5,10.2-24.8h.1Z"/>
    <path class="st2" d="M1090.8,1364.5c-6.8-.8-11.1-2.5-13.1-4.9-2-2.4-2.9-7.5-2.9-15.4v-45.8c0-10.5-3-18.9-9.2-25.2-6.1-6.2-14.6-9.4-25.5-9.4s-23.4,5.8-35.5,17.5c-5.4-11.7-15.8-17.5-31-17.5s-20.7,5.3-32.3,16l.9-15.1c0-1.2-1.1-1.9-3.3-1.9s-1.9.5-2.6,1.5c-1.4,1.6-4.7,3.6-9.9,6.1-5.3,2.5-11.9,4.8-19.8,6.8-1.2,0-1.9.9-1.9,2.9s.6,3.2,1.9,3.2c5.5.6,9.1,2,10.7,4s2.5,6.1,2.5,12.6v44.3c0,7.8-.9,12.9-2.9,15.3-2,2.4-6.3,4.1-13.1,4.9-1.2.2-1.9,1.2-1.9,3.2s.6,3.3,1.9,3.3c3.3,0,7.2-.2,11.8-.7,5.1-.5,9.7-.7,13.6-.7s8.4.2,13.6.7c4.7.5,8.7.7,12,.7s1.9-1.1,1.9-3.3-.6-3.1-2-3.2c-5.5-.6-9.2-2.2-10.9-4.7s-2.6-7.7-2.6-15.6v-54c4.1-4.5,7.9-7.6,11.4-9.4s7.7-2.6,12.3-2.6c7.4,0,12.8,2.1,16.3,6.2s5.3,10.7,5.3,19.7v40.1c0,7.9-.8,13.1-2.6,15.6s-5.3,4.1-10.9,4.7c-1.2.2-1.9,1.2-1.9,3.2s.6,3.3,1.9,3.3c3.2,0,7-.2,11.1-.7,4.7-.5,9.1-.7,13.1-.7s8.1.2,12.7.7c4.3.5,8,.7,11.1.7s1.9-1.1,1.9-3.3-.6-3.1-1.9-3.2c-5.4-.6-9.1-2.2-10.7-4.7-1.8-2.5-2.6-7.7-2.6-15.6v-56.1c6.3-6.6,14.3-9.9,23.9-9.9s12.7,2.1,16.1,6.1c3.4,4.2,5.1,10.7,5.1,19.8v40.1c0,7.9-.8,13.1-2.5,15.6s-5.2,4.1-10.6,4.7c-1.2.2-1.9,1.2-1.9,3.2s.6,3.3,1.9,3.3c3.2,0,7.2-.2,11.9-.7,5.1-.5,9.6-.7,13.5-.7s8.5.2,13.6.7c4.7.5,8.5.7,11.8.7s1.9-1.1,1.9-3.3-.6-3.1-1.9-3.2h.1Z"/>
    <path class="st2" d="M1057.9,1644.8l-1,.3c-4.3,3.8-8,5.8-11.2,5.8-6.7,0-9.9-5.1-9.9-15.3v-1l2.2-66v-1.8c0-10.5-3.2-18.8-9.8-25.1-6.6-6.2-15.1-9.4-25.6-9.4s-24.3,4.2-38,12.4c-13.6,8.2-20.4,16.1-20.4,23.6s.9,5.6,2.9,7.5c2,1.9,4.5,2.8,7.6,2.8,5.3,0,9.5-1.8,12.6-5.3s4.8-8.3,4.9-14.6c0-4.2,2.2-7.7,6.1-10.4,4-2.8,8.8-4.2,14.6-4.2s10.3,2.1,13.8,6.2c3.4,4.2,5.2,9.7,5.2,16.8v.7l-.8,22.8c-47.3,12.4-71,28.5-71,48.5s2.8,14.8,8.3,20.2c5.5,5.4,12.7,8.1,21.4,8.1,16.9,0,30.5-5.3,40.9-16,1.5,4.6,4.2,8.2,8.2,10.9,4.1,2.7,8.7,4.1,14.2,4.1s13.3-2.1,19.1-6.1c5.9-4.1,8.8-7.5,8.8-10.4s-.3-2.3-1-3.3-1.5-1.6-2.2-1.6v-.3ZM1009.5,1639.5c-1.8,3.8-5.1,7-10.1,9.6s-10.1,3.8-15.2,3.8c-10.7,0-16-7-16-20.8s14.2-25.5,42.5-31.9l-1.1,39.2h0Z"/>
  </g>
</svg>